<svg width="1004" height="775" viewBox="0 0 1004 775" fill="none" xmlns="http://www.w3.org/2000/svg">
<path d="M119.374 78.8496L118.495 79.6312C117.133 80.8414 114.929 79.7422 114.932 77.9207C114.937 73.388 114.226 69.1276 111.528 71.5262C106.82 75.711 104.204 91.4029 101.066 85.1262C97.9271 78.8496 96.8809 77.2808 90.6037 83.0343C84.3265 88.7879 86.4189 78.8485 83.2803 80.9414C81.4684 82.1497 76.2789 85.6093 71.9574 88.4902C70.428 89.5098 68.4642 88.1095 68.9651 86.341C76.0302 61.3981 91.4747 21.2017 112.574 27.0626C132.452 34.909 121.99 132.728 141.344 107.619C151.424 94.5422 152.852 44.6386 169.591 52.1712C198.633 61.8517 190.952 144.481 227.267 226.107C228.091 227.958 231.5 227.533 232.937 226.105C234.241 224.809 236.091 224.224 238.64 225.317C245.964 228.455 242.825 231.594 249.625 225.317C256.426 219.039 255.903 234.732 260.087 226.886C264.272 219.039 260.087 208.054 270.549 215.901C281.011 223.747 283.104 228.455 284.673 221.132C286.242 213.808 286.242 214.855 290.427 217.993C294.447 221.008 295.088 224.506 298.379 218.748C298.65 218.273 298.708 217.721 298.538 217.201C290.23 191.637 272.577 132.207 266.365 92.4498C260.087 52.2759 248.056 40.8375 242.825 40.14C230.445 39.4425 199.513 40.0354 174.822 47.9865" stroke="black" stroke-width="5" stroke-linecap="round"/>
<path d="M447.447 329.413C403.518 345.554 353.666 400.864 483.973 481.111" stroke="black" stroke-width="5" stroke-linecap="round"/>
<path d="M556.549 322.599C585.793 318.666 662.861 336.363 623.812 416.495C619.099 426.163 601.975 445.205 571.172 444.025C531.692 442.513 510.408 482.699 497.573 502.035" stroke="black" stroke-width="5" stroke-linecap="round"/>
<path d="M568.715 354.522C541.842 374.822 489.678 440.863 496.009 542.627C502.34 644.39 502.933 658.371 502.438 652.64" stroke="black" stroke-width="5" stroke-linecap="round"/>
<path d="M530.006 461.234V544.93" stroke="black" stroke-width="5" stroke-linecap="round"/>
<path d="M468.28 471.696V551.207" stroke="black" stroke-width="5" stroke-linecap="round"/>
<path d="M485.02 479.019C483.206 451.467 473.342 376.488 448.403 296.981" stroke="black" stroke-width="5" stroke-linecap="round"/>
<path d="M538.396 381.723C538.059 367.66 541.728 334.59 559.094 314.806C580.801 290.076 583.223 270.566 583.223 224.5" stroke="black" stroke-width="5" stroke-linecap="round"/>
<path d="M530.723 242.709C538.928 241.239 552.875 231.44 543.03 204" stroke="black" stroke-width="5" stroke-linecap="round"/>
<path d="M411.786 199.685C412.099 205.243 415.257 216.582 425.386 217.47" stroke="black" stroke-width="5" stroke-linecap="round"/>
<path d="M425.386 242.579C405.57 231.464 373.764 204.159 405.074 183.853C409.368 180.867 419.442 179.076 425.386 195.797" stroke="black" stroke-width="5" stroke-linecap="round"/>
<path d="M440.837 60.3219C330.251 71.7676 364.041 155.209 394.759 195.5C401.035 181.686 413.387 181.193 418.779 182.672C423.877 104.921 472.536 115.413 496.229 130.377C545.64 128.404 557.993 147.974 557.993 158.005C579.41 144.558 597.548 160.345 599.018 163.799C653.919 2.76973 516 28.2542 440.837 60.3219Z" fill="black"/>
<path d="M496.004 207.008C500.916 207.008 504.897 202.793 504.897 197.593C504.897 192.392 500.916 188.177 496.004 188.177C491.093 188.177 487.112 192.392 487.112 197.593C487.112 202.793 491.093 207.008 496.004 207.008Z" fill="black"/>
<path d="M573.025 204.227C577.041 205.854 581.88 203.267 583.834 198.447C585.787 193.628 584.114 188.401 580.098 186.774C576.082 185.146 571.243 187.734 569.29 192.553C567.337 197.372 569.009 202.599 573.025 204.227Z" fill="black"/>
<path d="M538.375 190.269H520.59" stroke="black" stroke-width="5" stroke-linecap="round"/>
<path d="M456.723 188.5L423.294 190.269" stroke="black" stroke-width="5" stroke-linecap="round"/>
<path d="M455.386 180L418.386 182" stroke="black" stroke-width="5" stroke-linecap="round"/>
<path d="M404.462 364.984C301.794 421.593 183.003 572.459 352.856 755.215" stroke="black" stroke-width="5" stroke-linecap="round"/>
<path d="M391.908 667.334C373.102 636.671 372.776 630.946 370.984 592.008" stroke="black" stroke-width="5" stroke-linecap="round"/>
<path d="M679.612 477.973C663.966 526.614 667.577 582.294 671.664 637.518" stroke="black" stroke-width="5" stroke-linecap="round"/>
<path d="M545.699 281.288C539.812 274.973 522.99 266.13 502.805 281.288" stroke="black" stroke-width="5" stroke-linecap="round"/>
<path d="M689.027 436.125C685.943 429.101 659.806 373.21 632.533 358.706" stroke="black" stroke-width="5" stroke-linecap="round"/>
<path d="M93.219 407.878L90.6035 393.754L158.606 370.215L161.222 379.107L198.885 367.076L200.977 372.307L93.219 407.878Z" fill="black"/>
<path d="M68.5132 595.02C40.0985 537.523 13.6229 402.857 3.22187 338.287C2.98618 336.824 4.37968 335.681 5.7951 336.12L16.4988 339.442C17.3294 339.7 18.2314 339.392 18.7301 338.679L24.2504 330.793C24.8086 329.996 25.8598 329.716 26.7405 330.13L32.0881 332.647C33.1663 333.154 34.4463 332.612 34.832 331.484L39.8479 316.822C40.3325 315.406 42.1443 315.004 43.1819 316.084L52.2616 325.526C53.1475 326.448 54.6584 326.313 55.3674 325.25L57.2581 322.413C57.7887 321.618 58.8085 321.309 59.6915 321.677L62.5549 322.87C63.5929 323.302 64.7834 322.794 65.1893 321.746L68.4181 313.405C69.1256 311.577 71.7578 311.747 72.2067 313.654C89.9244 388.947 103.794 482.471 129.199 566.625C129.748 568.441 127.698 569.942 126.135 568.867L125.646 568.53C124.319 567.618 122.513 568.568 122.513 570.178V570.741C122.513 572.284 120.838 573.246 119.505 572.468L106.124 564.663C104.932 563.967 103.41 564.66 103.152 566.016L101.979 572.172C101.766 573.29 100.664 574.005 99.5565 573.745L94.5755 572.573C93.527 572.326 92.4714 572.954 92.1879 573.993L90.2567 581.075C89.9065 582.358 88.4238 582.949 87.2872 582.257L79.7473 577.667C78.6256 576.984 77.1614 577.55 76.7894 578.809L72.1092 594.65C71.6022 596.366 69.306 596.624 68.5132 595.02Z" stroke="black" stroke-width="5" stroke-linecap="round"/>
<path d="M25.7396 358.183C27.832 365.681 30.9705 380.886 26.7858 381.723C21.5548 382.769 23.6472 368.645 33.586 363.414C43.5249 358.183 35.6785 375.969 42.4787 374.399C49.279 372.83 57.6486 352.429 52.9407 352.429C48.2328 352.429 45.6173 373.876 58.1717 373.353C70.726 372.83 67.0643 349.814 64.4488 353.998C61.8333 358.183 64.9719 368.122 74.3877 370.738" stroke="black" stroke-width="3" stroke-linecap="round"/>
<path d="M70.7263 545.976C70.552 551.032 72.2956 558.112 80.6652 545.976C82.7573 543.36 82.4435 540.222 79.0956 542.314C74.9109 544.93 80.6649 553.299 87.4652 549.637C94.2655 545.976 103.158 536.037 96.881 537.083C90.6038 538.129 94.7886 547.545 102.635 544.406" stroke="black" stroke-width="3" stroke-linecap="round"/>
<path d="M59.7407 524.528C66.8897 523.831 82.5478 521.076 87.988 515.636" stroke="black" stroke-width="3" stroke-linecap="round"/>
<path d="M64.4487 508.312C70.0284 507.615 82.0248 505.592 85.3726 503.081" stroke="black" stroke-width="3" stroke-linecap="round"/>
<path d="M92.6963 501.512V493.666" stroke="black" stroke-width="3" stroke-linecap="round"/>
<path d="M98.4502 501.512V493.143" stroke="black" stroke-width="3" stroke-linecap="round"/>
<path d="M48.7559 470.126C59.2178 467.685 80.8741 462.384 83.8034 460.71" stroke="black" stroke-width="3" stroke-linecap="round"/>
<path d="M38.2939 436.648C47.0122 434.904 66.7505 430.266 75.957 425.663" stroke="black" stroke-width="3" stroke-linecap="round"/>
<path d="M36.2012 429.848C45.6169 429.848 65.2854 424.407 72.818 419.386" stroke="black" stroke-width="3" stroke-linecap="round"/>
<path d="M103.158 451.818L211.873 414.745C214.512 413.845 215.905 410.96 214.969 408.334L200.454 367.599" stroke="black" stroke-width="5" stroke-linecap="round"/>
<path d="M85.8955 371.784L151.806 350.337" stroke="black" stroke-width="5" stroke-linecap="round"/>
<path d="M159.202 373.794L138.649 308.027C137.826 305.393 139.293 302.589 141.927 301.764L245.936 269.171C248.557 268.35 251.35 269.797 252.191 272.411L273.196 337.708C274.044 340.346 272.586 343.17 269.945 344.006L165.483 377.07C162.843 377.905 160.028 376.437 159.202 373.794Z" stroke="black" stroke-width="5" stroke-linecap="round"/>
<path d="M101.065 424.093C103.332 420.955 108.807 414.887 112.574 415.724C117.281 416.77 118.851 416.77 123.559 411.016C128.267 405.262 129.313 415.201 137.159 411.016C145.006 406.831 153.375 398.985 157.56 403.169C160.908 406.517 164.535 401.775 165.93 398.985" stroke="black" stroke-width="3" stroke-linecap="round"/>
<path d="M160.637 344.12C159.852 341.459 158.795 338.108 157.831 335.599C157.237 334.052 158.254 331.254 159.822 330.718L174.023 325.859C175.05 325.508 176.169 326.04 176.546 327.057L180.387 337.429C180.778 338.483 180.223 339.652 179.159 340.015L163.224 345.467C162.137 345.839 160.962 345.222 160.637 344.12Z" stroke="black" stroke-width="3"/>
<path d="M235.502 344.583L238.641 329.413" stroke="black" stroke-width="3" stroke-linecap="round"/>
<path d="M242.825 335.689C245.964 334.119 252.241 337.783 248.579 339.351C247.137 339.968 242.302 332.027 256.426 332.55" stroke="black" stroke-width="3" stroke-linecap="round"/>
<path d="M218.763 341.992C221.901 340.422 228.178 344.086 224.517 345.654C223.074 346.271 218.24 338.33 232.363 338.853" stroke="black" stroke-width="3" stroke-linecap="round"/>
<path d="M107.866 26.0143C123.559 20.7833 159.13 11.3643 175.868 15.5523C184.761 17.7774 194.003 36.1277 192.608 43.7999" stroke="black" stroke-width="5" stroke-linecap="round"/>
<path d="M129.836 32.2934C142.913 32.2932 162.477 23.4007 167.499 25.4931" stroke="black" stroke-width="3" stroke-linecap="round"/>
<path d="M130.359 38.571C136.287 38.571 149.609 37.4202 155.468 32.8169" stroke="black" stroke-width="3" stroke-linecap="round"/>
<path d="M199.931 69.9567C213.706 68.7362 242.197 65.8765 245.964 64.2026" stroke="black" stroke-width="3" stroke-linecap="round"/>
<path d="M203.593 77.803C215.45 75.7106 241.465 71.6304 250.672 72.0489" stroke="black" stroke-width="3" stroke-linecap="round"/>
<path d="M205.162 102.911C216.147 104.481 242.407 95.9018 244.918 97.1572" stroke="black" stroke-width="3" stroke-linecap="round"/>
<path d="M205.685 110.76C221.901 110.759 241.779 99.2502 255.902 101.868" stroke="black" stroke-width="3" stroke-linecap="round"/>
<path d="M750.265 83.6599L752.855 74.4097C753.142 73.3818 754.187 72.7611 755.227 72.9994L844.783 93.5123C845.96 93.7818 846.632 95.0244 846.212 96.1564L842.391 106.473C842.038 107.426 841.028 107.962 840.041 107.721L751.716 86.142C750.617 85.8736 749.96 84.7487 750.265 83.6599Z" fill="black"/>
<path d="M761.215 55.312L850.074 74.4584C853.112 75.1129 854.823 78.351 853.652 81.2297L825.635 150.125C824.691 152.445 822.176 153.709 819.751 153.082L732.968 130.638" stroke="black" stroke-width="5" stroke-linecap="round"/>
<path d="M769.061 28.6344C761.125 38.2414 738.805 115.181 724.157 149.279C724.101 149.41 724.028 149.536 723.945 149.651C716.217 160.333 715.162 149.432 711.521 142.669C707.859 135.868 692.166 151.039 685.366 153.131C678.565 155.224 686.412 139.531 675.95 142.669C665.488 145.808 665.488 141.623 664.965 137.438C664.637 134.816 658.298 137.157 653.136 139.636C651.596 140.375 649.813 139.044 650.185 137.377C660.513 91.0357 684.685 34.6587 696.801 9.49354C697.366 8.31958 698.88 8.04312 700.042 8.63339C705.52 11.4173 708.891 5.45901 714.136 3.52596C724.075 -0.13663 717.275 16.6034 726.167 14.5107C735.06 12.418 736.629 14.5107 737.676 16.6034C738.722 18.6961 743.43 17.6493 749.184 11.3721C754.938 5.09497 757.553 6.14116 758.599 14.5107C759.646 22.8803 766.446 13.9876 770.108 17.6493C773.037 20.5787 770.631 26.1932 769.061 28.6344Z" stroke="black" stroke-width="5" stroke-linecap="round"/>
<path d="M679.089 95.5903C695.828 100.821 728.469 99.0428 731.399 102.391" stroke="black" stroke-width="3" stroke-linecap="round"/>
<path d="M702.628 107.622C705.767 106.924 713.299 105.948 718.321 107.622" stroke="black" stroke-width="3" stroke-linecap="round"/>
<path d="M688.504 67.3433L723.029 69.9588" stroke="black" stroke-width="3" stroke-linecap="round"/>
<path d="M694.259 58.4507C705.941 59.3225 730.876 61.5893 737.153 63.6817" stroke="black" stroke-width="3" stroke-linecap="round"/>
<path d="M699.489 119.13L704.72 114.945" stroke="black" stroke-width="3" stroke-linecap="round"/>
<path d="M712.044 115.991L709.951 121.745" stroke="black" stroke-width="3" stroke-linecap="round"/>
<path d="M718.321 118.084L717.798 121.746" stroke="black" stroke-width="3" stroke-linecap="round"/>
<path d="M724.598 117.561V121.222" stroke="black" stroke-width="3" stroke-linecap="round"/>
<path d="M703.151 28.1109C700.013 31.4239 694.886 37.7359 699.49 36.4805C704.763 35.0423 713.99 27.4536 714.69 35.0528C714.806 36.3181 713.256 37.3943 712.529 36.3515C711.991 35.5779 712.915 34.6359 717.798 33.865C727.737 32.2957 719.367 37.5267 728.783 36.4805C738.199 35.4343 744.999 22.3568 741.337 26.0185C737.675 29.6802 733.491 39.6188 743.429 39.0957C753.368 38.5726 754.938 26.5413 751.799 32.8185C748.66 39.0957 751.799 38.5726 751.799 40.665" stroke="black" stroke-width="3" stroke-linecap="round"/>
<path d="M743.43 101.868C745.348 100.822 750.962 100.508 758.076 107.622C766.969 116.514 779.523 105.006 783.185 110.237C786.847 115.468 786.324 115.991 791.032 114.422" stroke="black" stroke-width="3" stroke-linecap="round"/>
<path d="M693.178 722.497L694.413 713.85C694.625 712.372 695.89 711.274 697.383 711.274H810.066C811.891 711.274 813.294 712.891 813.035 714.699L811.8 723.345C811.589 724.823 810.323 725.921 808.83 725.921H696.148C694.322 725.921 692.92 724.304 693.178 722.497Z" fill="black"/>
<path d="M815.201 695.81L806.003 770.367C805.817 771.871 804.54 773 803.025 773H689.326C687.508 773 686.107 771.396 686.353 769.595L696.52 695.038C696.723 693.551 697.992 692.443 699.492 692.443H812.224C814.027 692.443 815.422 694.021 815.201 695.81Z" stroke="black" stroke-width="3" stroke-linecap="round"/>
<path d="M700.013 745.276C703.5 742.137 711.73 736.802 716.752 740.568C723.029 745.276 727.737 736.906 733.491 742.137C739.245 747.368 754.415 735.86 760.692 742.137C765.714 747.159 771.154 744.23 773.246 742.137" stroke="black" stroke-width="3" stroke-linecap="round"/>
<path d="M717.275 690.873L723.298 646.857C723.709 643.854 721.375 641.179 718.344 641.179H609.676C607.185 641.179 605.073 643.014 604.725 645.481L594.64 716.992C594.212 720.033 596.6 722.738 599.671 722.689L692.166 721.213" stroke="black" stroke-width="5" stroke-linecap="round"/>
<path d="M610.297 689.168L611.405 679.567C611.521 678.558 612.376 677.796 613.392 677.796H630.112C631.368 677.796 632.313 678.941 632.076 680.174L630.23 689.775C630.049 690.716 629.225 691.397 628.266 691.397H612.284C611.089 691.397 610.16 690.355 610.297 689.168Z" stroke="black" stroke-width="3" stroke-linecap="round"/>
<path d="M674.381 711.275L684.32 698.72" stroke="black" stroke-width="3" stroke-linecap="round"/>
<path d="M656.072 706.043C657.642 704.3 661.722 701.335 665.488 703.428C670.196 706.043 669.15 711.274 663.919 710.228C658.688 709.182 663.396 702.382 674.381 705.52" stroke="black" stroke-width="3" stroke-linecap="round"/>
<path d="M686.412 705.52C687.981 706.915 691.748 708.659 694.259 704.474" stroke="black" stroke-width="3" stroke-linecap="round"/>
<path d="M767.614 400.554C764.759 404.457 765.352 414.525 790.509 423.571" stroke="black" stroke-width="5" stroke-linecap="round"/>
<path d="M798.177 394.277C790.717 394.256 783.489 393.766 766.547 388.246C762.558 386.99 759.803 383.87 758.926 382.467C755.76 376.985 762.057 372.143 767.728 372.311C773.912 372.497 786.025 373.238 800.456 374.868" stroke="black" stroke-width="5" stroke-linecap="round"/>
<path d="M797.832 394.048C790.369 394.026 783.139 393.535 766.19 388C762.325 389.398 761.824 396.053 767.944 400.207C771.81 402.84 778.808 406.07 790.369 409.97" stroke="black" stroke-width="5" stroke-linecap="round"/>
<path d="M669.673 599.855C699.664 624.091 757.216 622.327 781.093 559.053C802.017 503.605 809.34 455.654 810.386 432.986" stroke="black" stroke-width="5" stroke-linecap="round"/>
<path d="M695.828 554.868C696.351 551.73 706.813 507.266 723.552 490.527" stroke="black" stroke-width="5" stroke-linecap="round"/>
<path d="M809.863 428.802C814.222 416.945 820.325 389.36 809.863 373.876" stroke="black" stroke-width="5" stroke-linecap="round"/>
<path d="M777.954 419.387L776.043 477.182C775.965 479.556 773.29 480.901 771.337 479.549L771.198 479.453C769.972 478.604 768.308 478.785 767.292 479.879L764.307 483.093C763.178 484.309 761.276 484.377 760.062 483.245L756.397 479.824C755.271 478.773 753.533 478.745 752.374 479.759L747.45 484.067C746.59 484.82 745.376 485.019 744.321 484.579L735.073 480.725C734.092 480.317 732.969 480.457 732.119 481.095L723.245 487.75C721.956 488.717 720.133 488.493 719.116 487.242L716.089 483.516C715.02 482.201 713.076 482.031 711.796 483.141L710.185 484.536C708.447 486.043 705.755 485.186 705.382 482.916C692.263 403.212 719.489 200.973 821.894 216.948C839.505 219.563 873.158 241.847 866.881 310.059C860.739 376.801 875.798 395.901 884.617 397.346C884.997 397.408 885.408 397.56 885.749 397.38C886.542 396.961 887.671 394.959 888.328 389.046C889.364 379.72 896.047 321.121 920.067 350.009C920.502 350.531 920.76 351.23 920.76 351.909V422.574C920.76 424.755 923.015 426.207 925.002 425.305L930.965 422.594C931.79 422.219 932.739 422.237 933.549 422.642L941.211 426.473C942.154 426.944 943.274 426.886 944.163 426.321L963.227 414.189C964.621 413.302 966.468 413.709 967.361 415.098L973.59 424.786C974.466 426.149 976.267 426.57 977.657 425.736L985.97 420.748C987.184 420.02 988.761 420.502 989.359 421.785V421.785C990.273 423.743 993.071 423.571 993.671 421.496C999.866 400.062 1006.72 361.703 994.517 343.014C990.418 336.737 932.792 331.331 910.298 338.306" stroke="black" stroke-width="5" stroke-linecap="round"/>
<path d="M822.417 216.424C846.306 216.773 901.459 215.559 919.191 228.455C947.961 249.379 931.745 322.09 941.684 334.121" stroke="black" stroke-width="5" stroke-linecap="round"/>
<path d="M784.754 361.322C789.811 330.11 805.155 270.826 856.419 244.148" stroke="black" stroke-width="5" stroke-linecap="round"/>
<path d="M869.496 235.255C881.179 235.255 906.218 235.778 912.913 237.871" stroke="black" stroke-width="3" stroke-linecap="round"/>
<path d="M874.728 244.148C895.128 244.148 919.191 249.065 921.283 247.81" stroke="black" stroke-width="3" stroke-linecap="round"/>
<path d="M878.912 277.103L923.375 278.672" stroke="black" stroke-width="3" stroke-linecap="round"/>
<path d="M883.097 285.473C891.815 286.519 910.089 287.984 913.436 285.473" stroke="black" stroke-width="3" stroke-linecap="round"/>
<path d="M878.912 317.382L917.098 318.951" stroke="black" stroke-width="3" stroke-linecap="round"/>
<path d="M884.143 324.182C889.548 324.88 900.882 325.856 902.975 324.182" stroke="black" stroke-width="3" stroke-linecap="round"/>
<path d="M942.207 355.045C943.254 363.938 944.718 381.828 942.207 382.246C939.069 382.769 951.623 362.368 955.285 366.553C958.946 370.738 944.299 392.708 961.562 382.246C966.27 378.41 974.43 369.169 969.408 362.891C963.131 355.045 964.177 386.431 967.839 382.246C971.501 378.061 981.963 359.23 985.101 370.215C988.24 381.2 975.685 381.2 979.87 377.015C984.055 372.83 989.286 370.215 992.424 377.015" stroke="black" stroke-width="3" stroke-linecap="round"/>
<path d="M461.723 217C506.353 242.502 520.166 201.119 520.708 175.076C520.732 173.94 519.778 173.044 518.643 173.098L458.629 175.911C457.563 175.961 456.723 176.84 456.723 177.908V189.5" stroke="black" stroke-width="5" stroke-linecap="round"/>
<path d="M585.723 220.5C545.816 227.8 537.964 200.362 537.727 175.072C537.717 173.94 538.664 173.04 539.796 173.088L594.667 175.413C595.794 175.461 596.658 176.429 596.578 177.554L595.723 189.5" stroke="black" stroke-width="5" stroke-linecap="round"/>
</svg>
