<svg width="835" height="773" viewBox="0 0 835 773" fill="none" xmlns="http://www.w3.org/2000/svg">
<path d="M549.718 345.319C643.725 395.074 831.738 537.648 831.738 709.898" stroke="black" stroke-width="5" stroke-linecap="round"/>
<path d="M173.912 742.921V614.364C173.912 611.658 176.063 609.444 178.767 609.366L718.278 593.803C721.095 593.722 723.422 595.983 723.422 598.801V742.921" stroke="black" stroke-width="5" stroke-linecap="round"/>
<path d="M609.16 597.618L604.537 746.884" stroke="black" stroke-width="5" stroke-linecap="round"/>
<path d="M691.058 593.655C687.366 581.8 680.002 557.834 676.872 546.561C676.258 544.35 674.258 542.799 671.963 542.799H518.015" stroke="black" stroke-width="5" stroke-linecap="round"/>
<path d="M516.034 554.686L525.941 596.957" stroke="black" stroke-width="5" stroke-linecap="round"/>
<path d="M525.608 595.7L516.952 563.113C516.647 561.964 514.949 562.212 514.986 563.401L516.005 595.988C516.021 596.528 516.464 596.957 517.004 596.957H524.642C525.298 596.957 525.777 596.334 525.608 595.7Z" fill="black"/>
<path d="M623.03 540.817L620.187 531.815C619.522 529.71 617.556 528.29 615.348 528.321L432.154 530.91" stroke="black" stroke-width="5" stroke-linecap="round"/>
<path d="M438.759 541.478C440.521 556.008 446.553 587.975 456.592 599.599" stroke="black" stroke-width="5" stroke-linecap="round"/>
<path d="M455.248 597.89C448.384 588.366 443.22 568.979 440.313 553.905C440.078 552.687 437.998 552.838 438.007 554.079C438.141 574.209 439.357 599.6 442.721 599.6H454.408C455.264 599.6 455.748 598.585 455.248 597.89Z" fill="black"/>
<path d="M540.472 527.608L533.091 502.058C532.4 499.665 530.07 498.145 527.602 498.485C476.052 505.581 370.585 516.673 328.461 508.454" stroke="black" stroke-width="5" stroke-linecap="round"/>
<path d="M332.423 521.664L356.861 603.563" stroke="black" stroke-width="5" stroke-linecap="round"/>
<path d="M442.722 507.133L431.04 475.592C430.167 473.234 427.699 471.888 425.244 472.433C389.239 480.424 318.217 492.49 290.814 483.356" stroke="black" stroke-width="5" stroke-linecap="round"/>
<path d="M282.228 481.376C290.814 516.821 309.175 590.617 313.93 602.241" stroke="black" stroke-width="5" stroke-linecap="round"/>
<path d="M314.065 602.182C308.57 586.942 290.526 515.631 282.228 481.376L301.249 602.717C301.325 603.204 301.744 603.562 302.237 603.562H313.101C313.812 603.562 314.306 602.85 314.065 602.182Z" fill="black"/>
<path d="M262.414 515.719H288.833" stroke="black" stroke-width="5" stroke-linecap="round"/>
<path d="M252.507 517.7L275.624 604.222" stroke="black" stroke-width="5" stroke-linecap="round"/>
<path d="M261.66 605.307L253.762 529.706C253.634 528.485 255.393 528.153 255.72 529.336L276.595 604.937C276.771 605.574 276.292 606.203 275.631 606.203H262.655C262.143 606.203 261.713 605.816 261.66 605.307Z" fill="black"/>
<path d="M340.906 600.697L332.453 528.565C332.311 527.35 334.057 526.991 334.405 528.164L355.819 600.296C356.009 600.937 355.529 601.58 354.86 601.58H341.899C341.392 601.58 340.965 601.2 340.906 600.697Z" fill="black"/>
<path d="M262.414 557.328L199.742 554.941C196.407 554.814 193.886 557.928 194.705 561.164L206.274 606.864" stroke="black" stroke-width="5" stroke-linecap="round"/>
<path d="M205.959 605.618L195.714 565.151C195.416 563.973 193.67 564.247 193.747 565.46L196.308 605.927C196.341 606.453 196.778 606.864 197.306 606.864H204.99C205.641 606.864 206.119 606.25 205.959 605.618Z" fill="black"/>
<path d="M185.836 504.834L207.764 553.788" stroke="black" stroke-width="5" stroke-linecap="round"/>
<path d="M434.68 327.066C431.83 335.686 432.77 357.049 451.778 348.704C471.012 340.26 473.149 321.261 492.918 307.011" stroke="black" stroke-width="5" stroke-linecap="round"/>
<path d="M417.316 341.355C405.746 368.612 437.703 423.127 502.165 371.394" stroke="black" stroke-width="5" stroke-linecap="round"/>
<path d="M185.139 505.812C170.609 530.145 122.395 522.323 96.6365 549.403C70.8782 576.482 48.9832 571.772 44.72 542.713C42.6313 528.476 61.8604 501.721 75.0173 495.209C82.1012 491.58 95.4776 486.464 119.092 487.319" stroke="black" stroke-width="5" stroke-linecap="round"/>
<path d="M119.753 485.338C59.6495 485.338 42.6671 528.484 44.7128 542.711C46.6314 556.055 66.5243 586.52 100.208 543.59C108.134 535.752 118.566 533.391 123.715 530.91L119.753 485.338Z" fill="black"/>
<path d="M43.9082 541.125C40.8694 601.954 110.151 630.403 136.925 770" stroke="black" stroke-width="5" stroke-linecap="round"/>
<path d="M149.423 430.002L125.76 375.394C124.621 372.766 125.917 369.723 128.58 368.671C154.379 358.483 201.447 335.868 216.791 313.099" stroke="black" stroke-width="5" stroke-linecap="round"/>
<path d="M187.07 500.673L191.842 511.647C192.878 514.03 195.547 515.232 198.001 514.375C226.132 504.548 278.037 483.74 297.507 466.126C299.071 464.71 299.374 462.431 298.42 460.549L227.625 320.902" stroke="black" stroke-width="5" stroke-linecap="round"/>
<path d="M283.549 398.156C311.289 386.268 374.958 359.32 407.718 346.639" stroke="black" stroke-width="5" stroke-linecap="round"/>
<path d="M447.346 392.872C434.572 399.258 410.227 419.555 414.983 449.672" stroke="black" stroke-width="5" stroke-linecap="round"/>
<path d="M460.872 433.161C441.573 458.832 419.593 464.112 411.02 463.542" stroke="black" stroke-width="5" stroke-linecap="round"/>
<path d="M479.048 394.854C490.276 404.321 508.769 429.727 500.844 463.543" stroke="black" stroke-width="5" stroke-linecap="round"/>
<path d="M455.932 398.156C454.505 406.15 454.809 419.717 460.872 433.161C465.984 444.523 475.204 455.798 490.937 463.542" stroke="black" stroke-width="5" stroke-linecap="round"/>
<path d="M149.67 464.868C149.021 463.249 148.696 458.135 152.59 450.625C157.459 441.237 168.169 422.463 160.38 424.405C152.59 426.347 117.215 469.076 122.083 490.44" stroke="black" stroke-width="5" stroke-linecap="round"/>
<path d="M173.818 507.894C176.241 504.417 181.277 498.611 186.55 495.901C189.53 494.369 192.494 491.067 190.659 488.263C188.234 484.559 183.903 481.831 177.128 484.466C164.218 489.486 159.915 495.845 155.281 504.547" stroke="black" stroke-width="5" stroke-linecap="round"/>
<path d="M179.562 485.232C180.434 479.772 178.842 469.64 165.497 472.795C152.151 475.95 142.927 488.67 139.983 494.636" stroke="black" stroke-width="5" stroke-linecap="round"/>
<path d="M170.579 470.546C164.881 465.344 148.949 459.209 130.804 476.278" stroke="black" stroke-width="5" stroke-linecap="round"/>
<path d="M125.705 444.662C123.727 462.675 116.946 464.283 118.924 486.477" stroke="black" stroke-width="5" stroke-linecap="round"/>
<path d="M328.352 187.044C328.352 209.335 346.166 227.347 368.068 227.347C389.971 227.347 407.785 209.335 407.785 187.044C407.785 164.752 389.971 146.741 368.068 146.741C346.166 146.741 328.352 164.752 328.352 187.044Z" stroke="black" stroke-width="5"/>
<path d="M425.685 186.457C425.685 208.36 443.696 226.174 465.988 226.174C488.279 226.174 506.291 208.36 506.291 186.457C506.291 164.555 488.279 146.741 465.988 146.741C443.696 146.741 425.685 164.555 425.685 186.457Z" stroke="black" stroke-width="5"/>
<path d="M423.186 178.486C419.798 177.239 412.006 175.68 407.941 179.421" stroke="black" stroke-width="5" stroke-linecap="round"/>
<ellipse rx="9.38151" ry="9.96785" transform="matrix(-1 0 0 1 465.402 195.253)" fill="black"/>
<ellipse rx="10.5542" ry="9.96785" transform="matrix(-1 0 0 1 376.278 197.599)" fill="black"/>
<path d="M385.659 164.176C382.909 162.3 375.073 158.266 365.723 157.14" stroke="black" stroke-width="5" stroke-linecap="round"/>
<path d="M471.265 156.655C462.665 154.682 450.157 156.655 443.121 166.521" stroke="black" stroke-width="5" stroke-linecap="round"/>
<path d="M421.554 220.294C416.456 220.538 405.799 218.537 403.964 208.586" stroke="black" stroke-width="5" stroke-linecap="round"/>
<path d="M443.121 250.955C435.74 259.877 435.943 267.907 410.286 258.39" stroke="black" stroke-width="5" stroke-linecap="round"/>
<path d="M355.049 223.983C351.613 242.626 355.513 260.314 383.033 287.176C414.698 318.084 429.426 333.538 473.611 300.422" stroke="black" stroke-width="5" stroke-linecap="round"/>
<path d="M352.294 246.264C361.651 126.824 447.277 78.611 489.921 69.1431C515.069 73.2215 528.684 141.011 560.36 148.441C569.772 148.441 578.425 146.583 582.719 127.39C605.528 25.429 538.414 21.3184 508.929 24.7171C339.325 -69.9597 248.485 129.737 352.294 246.264Z" fill="black"/>
<path d="M565.08 193.493C565.965 196.073 567.204 202.265 565.08 206.393" stroke="black" stroke-width="5" stroke-linecap="round"/>
<path d="M505.273 177.076H566.253" stroke="black" stroke-width="5" stroke-linecap="round"/>
<path d="M557.253 181.077C567.612 173.93 585.184 179.585 579.063 206.604C575.246 223.452 557.798 225.834 554.527 215.283" stroke="black" stroke-width="5" stroke-linecap="round"/>
</svg>
