<?xml version="1.0" encoding="UTF-8"?>
<svg version="1.1" xmlns="http://www.w3.org/2000/svg" width="1024" height="1024">
<path d="M0 0 C337.92 0 675.84 0 1024 0 C1024 337.92 1024 675.84 1024 1024 C686.08 1024 348.16 1024 0 1024 C0 686.08 0 348.16 0 0 Z " fill="#EBEBE9" transform="translate(0,0)"/>
<path d="M0 0 C1.57583748 1.3596939 3.13950236 2.73369322 4.6875 4.125 C5.31269531 4.63417969 5.93789063 5.14335938 6.58203125 5.66796875 C14.50486255 12.62503732 21.04849798 25.29015345 21.90258789 35.76220703 C22.02822323 38.82364848 22.05870567 41.87357548 22.0625 44.9375 C22.08699219 45.96681641 22.11148438 46.99613281 22.13671875 48.05664062 C22.17369767 57.80058609 19.4501893 65.28133957 13.6875 73.125 C13.09839844 73.970625 12.50929688 74.81625 11.90234375 75.6875 C2.00349439 89.72517462 -9.71427255 98.65704227 -26.74609375 102.703125 C-41.46879032 105.1232943 -58.21686035 101.59281948 -70.9609375 93.83984375 C-83.58532702 84.63368595 -92.74969811 69.80238067 -96.02734375 54.49609375 C-98.06412346 37.56013099 -94.15561573 23.38402919 -84.125 9.5625 C-74.56818749 -2.2904298 -61.69632014 -8.4668842 -47.0625 -11.5625 C-30.29554628 -12.95974614 -13.61586216 -10.6496229 0 0 Z " fill="#090D0C" transform="translate(685.3125,601.875)"/>
<path d="M0 0 C0.78503906 0.55558594 1.57007813 1.11117187 2.37890625 1.68359375 C12.34726826 9.50612441 19.7279071 23.65986871 21.26611328 36.16308594 C22.60902143 53.52737459 17.46287782 68.45556737 6.1418457 81.75341797 C-3.86687107 92.96472569 -16.72416903 100.29701574 -31.84375 101.48046875 C-47.73415847 102.17822361 -63.5363575 98.38976741 -76.16796875 88.26171875 C-86.92034361 78.21646332 -96.26059615 62.33348519 -97.23828125 47.34765625 C-97.69203357 29.98298239 -92.86718323 16.99947765 -80.8125 4.25 C-57.45897907 -18.1145057 -25.25486803 -18.19973802 0 0 Z " fill="#0A0D0C" transform="translate(401,603)"/>
<path d="M0 0 C3.84440446 -0.18469594 7.68765724 -0.2959132 11.53515625 -0.39453125 C12.61752563 -0.4474231 13.69989502 -0.50031494 14.81506348 -0.55480957 C20.34150684 -0.66098625 24.04485841 -0.60051996 28.38665771 3.04963684 C30.60682083 5.27285094 32.66127718 7.56961816 34.390625 10.19921875 C36.6519276 13.50946865 39.08990419 16.566107 41.6875 19.625 C42.39261719 20.50414062 43.09773437 21.38328125 43.82421875 22.2890625 C46.17991278 25.22416422 48.58483465 28.11367336 51 31 C59.21686762 40.85263293 67.1709841 50.82227933 75 61 C75.33 40.87 75.66 20.74 76 0 C84.25 0 92.5 0 101 0 C103.83036884 2.83036884 103.398879 4.86276399 103.60791016 8.83300781 C103.64522562 9.53967213 103.68254108 10.24633644 103.72098732 10.97441483 C104.16664389 20.20082261 104.22444543 29.43647362 104.2734375 38.671875 C104.27876118 39.62307472 104.28408485 40.57427444 104.28956985 41.5542984 C104.31601619 46.56451096 104.33550112 51.57470075 104.35009766 56.58496094 C104.36355178 60.71669076 104.39165207 64.84794009 104.43212891 68.97949219 C104.48130581 74.00356229 104.50619431 79.02719032 104.51332474 84.05149078 C104.5200393 85.95733767 104.53526671 87.86317451 104.55921555 89.76888275 C104.59070877 92.4203501 104.59093164 95.07007578 104.58349609 97.72167969 C104.59990143 98.50502686 104.61630676 99.28837402 104.63320923 100.09545898 C104.58833349 103.99486726 104.35746503 105.63207293 101.59236145 108.47810364 C95.68130702 111.94830346 87.54584903 111.62435153 81 110 C77.14010458 107.47506841 74.73785676 104.4695502 72.15527344 100.67236328 C70.56463597 98.36977101 68.81342905 96.21212324 67.06176758 94.03100586 C65.66487356 92.28420589 64.29342715 90.51976783 62.92578125 88.75 C59.8002159 84.72334194 56.59432128 80.76437826 53.375 76.8125 C52.82312012 76.13445312 52.27124023 75.45640625 51.70263672 74.7578125 C49.31845575 71.83219264 46.92774711 68.91233773 44.52734375 66 C40.50600755 61.12049505 36.57492454 56.18722672 32.73046875 51.16796875 C32.04422424 50.27386292 32.04422424 50.27386292 31.34411621 49.36169434 C30.2287543 47.90829981 29.11428383 46.45422124 28 45 C27.99191315 45.78482758 27.98382629 46.56965515 27.97549438 47.37826538 C27.89763628 54.76529568 27.81037274 62.15212593 27.71247292 69.53891563 C27.66247216 73.33677881 27.61614275 77.13461366 27.578125 80.93261719 C27.54131951 84.59614954 27.49497307 88.259447 27.44193649 91.92277908 C27.42336721 93.32220983 27.40826864 94.72169098 27.39665604 96.12119675 C27.37983757 98.0774795 27.34966647 100.03363381 27.31884766 101.98974609 C27.30552399 103.1044931 27.29220032 104.21924011 27.2784729 105.36776733 C27 108 27 108 25 110 C21.37355496 110.45295333 17.71398262 110.32404802 14.0625 110.3125 C13.04736328 110.32861328 12.03222656 110.34472656 10.98632812 110.36132812 C9.52549805 110.36229492 9.52549805 110.36229492 8.03515625 110.36328125 C6.69529663 110.36775269 6.69529663 110.36775269 5.32836914 110.37231445 C2.47343648 109.91580063 1.765921 109.24828552 0 107 C-0.36914349 104.95979786 -0.36914349 104.95979786 -0.36076355 102.57710266 C-0.36488754 101.67266418 -0.36901154 100.76822571 -0.3732605 99.83638 C-0.36247467 98.84663681 -0.35168884 97.85689362 -0.34057617 96.8371582 C-0.34101425 95.79308807 -0.34145233 94.74901794 -0.34190369 93.67330933 C-0.33981043 90.21561102 -0.31645355 86.75839506 -0.29296875 83.30078125 C-0.28737472 80.90610519 -0.28310371 78.51142571 -0.28010559 76.116745 C-0.26864169 69.80869089 -0.23916101 63.50084345 -0.20599365 57.19287109 C-0.17532618 50.75816646 -0.16160735 44.3234285 -0.14648438 37.88867188 C-0.11429297 25.25902633 -0.06365307 12.62952415 0 0 Z " fill="#060A09" transform="translate(727,593)"/>
<path d="M0 0 C1.59126986 0.21696644 3.17929929 0.45758936 4.76611328 0.70504761 C4.76611328 4.70504761 4.76611328 4.70504761 2.82470703 6.81832886 C1.52726562 7.90694214 1.52726562 7.90694214 0.20361328 9.01754761 C-5.82188297 14.20782655 -11.34393599 19.4179681 -16.23388672 25.70504761 C-17.85888672 27.51754761 -17.85888672 27.51754761 -19.23388672 28.70504761 C-19.89388672 28.70504761 -20.55388672 28.70504761 -21.23388672 28.70504761 C-21.72888672 30.19004761 -21.72888672 30.19004761 -22.23388672 31.70504761 C-22.89388672 31.70504761 -23.55388672 31.70504761 -24.23388672 31.70504761 C-24.55292969 32.50942261 -24.55292969 32.50942261 -24.87841797 33.33004761 C-27.08094901 37.18923745 -30.37425697 40.1674328 -33.50927734 43.28317261 C-36.34817652 46.05829746 -36.34817652 46.05829746 -37.30810547 49.74020386 C-35.85601427 52.39621067 -34.19612169 54.73321989 -32.35888672 57.14254761 C-31.95887451 57.66840454 -31.5588623 58.19426147 -31.14672852 58.73605347 C-27.81061736 63.07267689 -24.25738788 67.21250772 -20.67822266 71.34860229 C-15.89928057 76.95093206 -11.62518014 82.90501709 -7.31884766 88.87350464 C-3.40971099 94.24720644 0.64830913 99.12381311 5.38720703 103.79489136 C6.76611328 105.70504761 6.76611328 105.70504761 6.61376953 107.89645386 C5.76611328 109.70504761 5.76611328 109.70504761 3.76611328 110.70504761 C-18.97972352 113.44550987 -18.97972352 113.44550987 -26.22509766 109.66647339 C-29.15227762 106.89469195 -30.62377519 103.2795288 -32.22119141 99.64303589 C-34.13321474 95.98400957 -37.02227182 93.10367375 -39.79638672 90.08004761 C-46.535897 82.48995728 -52.81925016 74.92227362 -57.23388672 65.70504761 C-57.63349609 66.42176636 -58.03310547 67.13848511 -58.44482422 67.87692261 C-60.34358326 70.87845437 -62.45713749 73.34206962 -64.85888672 75.95504761 C-65.65552734 76.82645386 -66.45216797 77.69786011 -67.27294922 78.59567261 C-69.23388672 80.70504761 -69.23388672 80.70504761 -70.23388672 81.70504761 C-70.35546214 83.59567712 -70.41358255 85.49045834 -70.44482422 87.38473511 C-70.48736328 89.1191687 -70.48736328 89.1191687 -70.53076172 90.88864136 C-70.58267654 93.34161649 -70.62699751 95.79476457 -70.66357422 98.24801636 C-70.69451172 99.40688354 -70.72544922 100.56575073 -70.75732422 101.75973511 C-70.77714355 102.82691772 -70.79696289 103.89410034 -70.81738281 104.99362183 C-71.23388672 107.70504761 -71.23388672 107.70504761 -72.45117188 109.54953003 C-76.17444694 111.96287718 -80.94118647 111.17266221 -85.23388672 111.14254761 C-86.24451172 111.16252808 -87.25513672 111.18250854 -88.29638672 111.20309448 C-89.26576172 111.20244995 -90.23513672 111.20180542 -91.23388672 111.20114136 C-92.56419922 111.2039209 -92.56419922 111.2039209 -93.92138672 111.20675659 C-96.23388672 110.70504761 -96.23388672 110.70504761 -97.85544968 108.95247173 C-99.39871437 106.43631016 -99.60694374 105.16346379 -99.60137939 102.24455261 C-99.60694855 101.35701294 -99.6125177 100.46947327 -99.61825562 99.55503845 C-99.60443344 98.10622536 -99.60443344 98.10622536 -99.59033203 96.62814331 C-99.5923764 95.60504059 -99.59442078 94.58193787 -99.5965271 93.52783203 C-99.59953593 90.14531602 -99.58105749 86.76328694 -99.56201172 83.38082886 C-99.55895476 81.0348167 -99.55707816 78.68880273 -99.55633545 76.3427887 C-99.55173205 71.4275823 -99.53730211 66.51253971 -99.51513672 61.59738159 C-99.48680768 55.2818407 -99.47592065 48.96642866 -99.47145462 42.65083027 C-99.46730826 37.80830077 -99.45749813 32.96579759 -99.44557953 28.12328148 C-99.43986415 25.79355265 -99.43510967 23.46382126 -99.43131256 21.13408852 C-99.42447572 17.8872693 -99.41085689 14.6405545 -99.39501953 11.39376831 C-99.39390167 10.42182022 -99.39278381 9.44987213 -99.39163208 8.44847107 C-99.38592194 7.56939087 -99.38021179 6.69031067 -99.37432861 5.78459167 C-99.37135395 5.01640264 -99.36837929 4.2482136 -99.36531448 3.4567461 C-99.23388672 1.70504761 -99.23388672 1.70504761 -98.23388672 0.70504761 C-96.3193039 0.60532975 -94.40106355 0.57424172 -92.48388672 0.57223511 C-91.31857422 0.57094604 -90.15326172 0.56965698 -88.95263672 0.56832886 C-87.72544922 0.57219604 -86.49826172 0.57606323 -85.23388672 0.58004761 C-83.39310547 0.57424683 -83.39310547 0.57424683 -81.51513672 0.56832886 C-79.76716797 0.57026245 -79.76716797 0.57026245 -77.98388672 0.57223511 C-76.90623047 0.57336304 -75.82857422 0.57449097 -74.71826172 0.57565308 C-72.23388672 0.70504761 -72.23388672 0.70504761 -71.23388672 1.70504761 C-71.14110342 3.08664875 -71.11641629 4.47292798 -71.12036133 5.8576355 C-71.12043686 6.73847305 -71.12051239 7.61931061 -71.12059021 8.52684021 C-71.1257515 9.48412521 -71.13091278 10.44141022 -71.13623047 11.42770386 C-71.13764542 12.40291489 -71.13906036 13.37812592 -71.14051819 14.38288879 C-71.14613539 17.51113904 -71.15869079 20.63931884 -71.17138672 23.76754761 C-71.1763995 25.88278095 -71.18096279 27.99801541 -71.18505859 30.11325073 C-71.19611041 35.31054057 -71.21286526 40.50778906 -71.23388672 45.70504761 C-70.72341797 45.14350479 -70.21294922 44.58196198 -69.68701172 44.00340271 C-64.81015511 38.66120054 -59.87716883 33.38041272 -54.87556458 28.15504551 C-52.3071048 25.46764798 -49.76386709 22.7639306 -47.27050781 20.00656128 C-28.97056719 -0.17796549 -28.97056719 -0.17796549 -16.3503418 -1.23857117 C-10.80302551 -1.28924192 -5.48628557 -0.72438456 0 0 Z " fill="#070A0A" transform="translate(290.23388671875,592.2949523925781)"/>
<path d="M0 0 C0.75925781 -0.03738281 1.51851563 -0.07476562 2.30078125 -0.11328125 C5.97015647 0.54132088 7.20424694 1.46355416 9.6875 4.3125 C10.47009695 8.397655 10.35661479 12.46335304 10.31568909 16.61132812 C10.32633067 18.52332378 10.32633067 18.52332378 10.33718723 20.47394562 C10.35615471 24.01471201 10.34385126 27.55478983 10.3264643 31.09553909 C10.31311693 34.91293267 10.32851787 38.73022373 10.34028625 42.54760742 C10.35868701 50.02688217 10.35013441 57.50589606 10.33219803 64.98516273 C10.31818513 71.06247427 10.3142764 77.13971488 10.3176403 83.21704102 C10.31811775 84.08125687 10.31859519 84.94547273 10.3190871 85.83587694 C10.32011341 87.5913919 10.32116876 89.34690684 10.32225286 91.10242176 C10.33082485 106.63343761 10.31412879 122.16432734 10.28442383 137.6953125 C10.25558521 152.77349139 10.24850223 167.85148859 10.26391602 182.9296875 C10.28066854 199.34000148 10.28472209 215.75022914 10.26720566 232.16054535 C10.26536122 233.90968322 10.2635265 235.6588211 10.26170158 237.40795898 C10.26078949 238.26861859 10.2598774 239.12927819 10.25893768 240.01601839 C10.25332637 246.087598 10.25664498 252.15913555 10.26324654 258.23071289 C10.27096974 265.62772103 10.26426386 273.02455014 10.2390715 280.42152214 C10.22655274 284.19723173 10.22045842 287.97266228 10.23161316 291.74838257 C10.24346464 295.8370725 10.22444236 299.92502571 10.2021637 304.01367188 C10.21452485 305.81306591 10.21452485 305.81306591 10.22713572 307.64881134 C10.21608803 308.74112816 10.20504034 309.83344498 10.19365788 310.9588623 C10.19246639 311.90295708 10.19127491 312.84705185 10.19004732 313.81975555 C9.53764401 317.05581841 8.19317583 318.23652681 5.6875 320.3125 C3.8125 321.3125 3.8125 321.3125 1.6875 321.3125 C-1.1875 319.6875 -1.1875 319.6875 -4.3125 317.3125 C-5.87102471 316.37848358 -5.87102471 316.37848358 -7.46103477 315.42559814 C-9.59290307 313.61500497 -10.24535619 312.61110701 -10.86551023 309.85311127 C-11.08446175 306.59776148 -11.10197802 303.39056656 -11.0609436 300.12792969 C-11.06889242 298.87761837 -11.07684123 297.62730705 -11.08503091 296.33910751 C-11.10620868 292.87081728 -11.08994686 289.40355761 -11.06752992 285.93531227 C-11.04985074 282.19425606 -11.06673137 278.45333508 -11.07925415 274.71228027 C-11.09823743 267.38448924 -11.0850246 260.0570919 -11.06072827 252.72933006 C-11.03349439 244.19798819 -11.03676343 235.66674025 -11.04099493 227.13536596 C-11.04737576 211.91438184 -11.02403349 196.69358487 -10.98486328 181.47265625 C-10.94685444 166.69916077 -10.93268801 151.92588463 -10.94384766 137.15234375 C-10.95596043 121.06941936 -10.9556143 104.98659145 -10.93287599 88.90367508 C-10.93046138 87.18907929 -10.92804941 85.47448349 -10.92564011 83.7598877 C-10.92443303 82.91624845 -10.92322595 82.07260921 -10.9219823 81.20340514 C-10.91422017 75.2550178 -10.9150127 69.30666634 -10.9188118 63.35827637 C-10.92305397 56.11026371 -10.91262104 48.86244327 -10.88358469 41.61448479 C-10.86908685 37.91560847 -10.86095071 34.21701223 -10.87007141 30.51811218 C-10.87971226 26.51082095 -10.85841446 22.50429792 -10.83389282 18.49707031 C-10.84145147 17.32441494 -10.84901012 16.15175957 -10.85679781 14.94356918 C-10.77131884 7.08194211 -10.77131884 7.08194211 -8.40491295 3.11346436 C-5.49825403 0.61166895 -3.76488429 0.1202232 0 0 Z " fill="#0B0C0D" transform="translate(473.3125,205.6875)"/>
<path d="M0 0 C3.0603333 1.7655769 5.50587755 3.50587755 8 6 C8.26171303 8.67733192 8.26171303 8.67733192 8.2784729 12.15884399 C8.28426707 12.79947334 8.29006124 13.44010269 8.296031 14.10014504 C8.31313289 16.26424198 8.31592336 18.42812589 8.31884766 20.59228516 C8.32812635 22.14791726 8.33826725 23.70354443 8.34920311 25.25916576 C8.37668211 29.53373078 8.39164821 33.8082632 8.40459061 38.08289361 C8.42057628 42.65008367 8.44810996 47.21720561 8.47412109 51.78434753 C8.53378975 62.70499442 8.57504185 73.62567986 8.61386204 84.54641771 C8.63233843 89.65337572 8.65250584 94.76032699 8.67254639 99.86727905 C8.79519296 131.3724659 8.79519296 131.3724659 8.84273875 146.38906544 C8.91596819 169.42704528 9.03579351 192.46336667 9.25812757 215.50040793 C9.26621116 216.33836536 9.27429475 217.17632278 9.28262329 218.03967285 C9.2906474 218.87006144 9.29867151 219.70045002 9.30693877 220.5560019 C9.40495222 230.87070593 9.47155036 241.18563048 9.53227806 251.50061417 C9.58122094 259.59383318 9.65668176 267.68593926 9.76584792 275.77857298 C9.84560312 281.89584632 9.87859507 288.0124295 9.89346313 294.1302433 C9.907003 296.60449177 9.93604362 299.07871289 9.98196411 301.55257225 C10.04205349 304.89549161 10.04687688 308.23405269 10.03759766 311.57739258 C10.06838724 312.54154902 10.09917683 313.50570545 10.13089943 314.49907875 C10.06719811 318.61702944 9.87861822 321.02439442 7.06074142 324.15332603 C2.58610947 327.7519885 -1.13341305 330.46012447 -7 330 C-9.75881303 327.80920778 -10.86590847 325.93491069 -11.36710656 322.44046593 C-11.5222706 319.04898682 -11.537463 315.67896906 -11.5146637 312.28393555 C-11.52160922 310.9764545 -11.52855475 309.66897345 -11.53571075 308.32187176 C-11.55436108 304.69418781 -11.54802515 301.06691144 -11.53755772 297.43921041 C-11.53057246 293.52638267 -11.54655844 289.61363922 -11.55955505 285.70083618 C-11.5812112 278.03625495 -11.58106413 270.3718221 -11.57292951 262.70722032 C-11.56663318 256.47882035 -11.56776316 250.25046371 -11.57420158 244.02206421 C-11.57510324 243.13606968 -11.57600489 242.25007514 -11.57693387 241.33723229 C-11.57878504 239.53742861 -11.5806476 237.73762493 -11.58252143 235.93782127 C-11.59910534 219.05560582 -11.59037547 202.1734739 -11.57353585 185.29126346 C-11.5588364 169.83988778 -11.57346968 154.38870652 -11.60230602 138.93735588 C-11.63168482 123.07742815 -11.64267686 107.2175902 -11.63312382 91.35763645 C-11.63210125 89.56440291 -11.63110664 87.77116936 -11.6301403 85.97793579 C-11.62966391 85.095599 -11.62918752 84.21326222 -11.6286967 83.30418795 C-11.62653067 77.08226385 -11.63634661 70.86042457 -11.65091133 64.63851929 C-11.66840989 57.05746282 -11.668353 49.47665432 -11.64555968 41.89560771 C-11.6343951 38.02654251 -11.63130452 34.15791457 -11.64986038 30.28886795 C-11.66970339 26.09757136 -11.65093096 21.90734594 -11.62818909 17.71606445 C-11.64002482 16.4889358 -11.65186054 15.26180716 -11.66405493 13.99749279 C-11.56272175 4.84834429 -11.56272175 4.84834429 -8.64433193 1.74040222 C-5.35096242 -0.42717271 -3.87333856 -0.71142953 0 0 Z " fill="#070908" transform="translate(542,197)"/>
<path d="M0 0 C3.50165231 1.89680719 6.45397557 4.20895788 7.64256597 8.10771286 C7.89243614 10.65749626 7.91410623 13.12367522 7.86196899 15.68531799 C7.8741155 17.13941894 7.8741155 17.13941894 7.88650739 18.62289566 C7.90505115 21.86867255 7.87359656 25.11201571 7.84228516 28.35766602 C7.84522212 30.68538974 7.85119749 33.01311132 7.85998535 35.34082031 C7.8748173 41.66117868 7.84596915 47.98066323 7.80855227 54.3009007 C7.77926218 60.24165399 7.7804417 66.18234207 7.78072636 72.12315582 C7.78003982 83.89402616 7.74592644 95.66456207 7.69287109 107.43530273 C7.64142837 118.85527118 7.6131043 130.27498242 7.61083984 141.69506836 C7.61069699 142.39858295 7.61055413 143.10209755 7.61040695 143.82693077 C7.61026833 144.52923342 7.61012972 145.23153607 7.6099869 145.95512062 C7.60969651 147.36918962 7.60939402 148.78325862 7.60907936 150.19732761 C7.60892432 150.89470977 7.60876928 151.59209192 7.60860953 152.31060687 C7.60496154 163.85445832 7.57600616 175.39826118 7.54742002 186.94207263 C7.5390549 190.88248588 7.53471231 194.82288732 7.531147 198.76330757 C7.52424769 204.95134346 7.50185044 211.13913798 7.46737671 217.32707977 C7.45700498 219.60028526 7.45171371 221.87352035 7.45182419 224.1467495 C7.45105855 227.24530725 7.43188514 230.34321352 7.40786743 233.44166565 C7.41183112 234.34516347 7.4157948 235.24866129 7.4198786 236.17953783 C7.36105859 240.93439415 7.11114408 244.15163561 4 248 C1.703125 249.58203125 1.703125 249.58203125 -1 250 C-3.39099707 248.64975419 -5.18131079 247.42408347 -7.25 245.6875 C-7.79140625 245.25759766 -8.3328125 244.82769531 -8.890625 244.38476562 C-12.49116848 241.50883152 -12.49116848 241.50883152 -14 240 C-14.09988494 237.59534627 -14.13442226 235.21935783 -14.12698364 232.81414795 C-14.12854363 232.05319706 -14.13010362 231.29224617 -14.13171089 230.50823617 C-14.13572398 227.93873975 -14.13253001 225.36930162 -14.12939453 222.79980469 C-14.13074848 220.96542832 -14.13252838 219.13105222 -14.13470459 217.29667664 C-14.13928096 212.29861891 -14.13748819 207.30058172 -14.1343255 202.30252361 C-14.13180142 197.07979462 -14.13413972 191.85706744 -14.13571167 186.63433838 C-14.13753387 177.8576221 -14.13512641 169.08091422 -14.13037109 160.30419922 C-14.12493515 150.15401368 -14.12668607 140.00384825 -14.1321975 129.85366321 C-14.13673527 121.14875197 -14.13737571 112.44384679 -14.13475883 103.73893476 C-14.13319885 98.53586068 -14.13299454 93.33279606 -14.13629532 88.1297226 C-14.13918342 83.23457715 -14.13718099 78.3394576 -14.13140106 73.44431496 C-14.13007823 71.6468008 -14.13045952 69.84928446 -14.13266373 68.05177116 C-14.13539406 65.59908018 -14.13197088 63.1464723 -14.12698364 60.69378662 C-14.13032973 59.62524511 -14.13032973 59.62524511 -14.13374341 58.53511691 C-14.11933803 54.88517928 -13.79328994 51.5572931 -13 48 C-12.9076589 45.50135852 -12.86999932 43.0003422 -12.875 40.5 C-12.87113281 38.56640625 -12.87113281 38.56640625 -12.8671875 36.59375 C-12.89512903 33.17852194 -12.89512903 33.17852194 -13.49121094 30.59570312 C-14.37340996 26.09496416 -14.3091453 21.57390812 -14.375 17 C-14.41238281 16.01515625 -14.44976562 15.0303125 -14.48828125 14.015625 C-14.57663102 6.75131077 -14.57663102 6.75131077 -11.6015625 2.875 C-7.48114677 -0.09466899 -5.13468452 -0.58922609 0 0 Z " fill="#0D0E0E" transform="translate(443,252)"/>
<path d="M0 0 C0.82704941 0.00202423 1.65409882 0.00404846 2.50621033 0.00613403 C3.37281784 0.00438171 4.23942535 0.00262939 5.1322937 0.00082397 C8.01150993 -0.00359568 10.89066529 -0.00065615 13.7698822 0.00271606 C15.76145947 0.00204306 17.75303666 0.00107306 19.74461365 -0.00018311 C23.92443115 -0.00166023 28.10422733 0.00049495 32.28404236 0.00515747 C37.65465747 0.01085476 43.0252226 0.00757584 48.39583588 0.00158501 C52.51005941 -0.00202021 56.62427099 -0.0008822 60.73849487 0.0017128 C62.71934007 0.00238218 64.70018633 0.00155326 66.68103027 -0.00076675 C69.44440096 -0.00329263 72.20768954 0.00054639 74.97105408 0.00613403 C75.79810349 0.0041098 76.62515289 0.00208557 77.4772644 0 C83.12436976 0.02126612 83.12436976 0.02126612 84.2386322 1.13552856 C84.32589443 2.91624103 84.34562261 4.70035997 84.33628845 6.48318481 C84.33145447 8.10256958 84.33145447 8.10256958 84.32652283 9.75466919 C84.31395447 11.45913208 84.31395447 11.45913208 84.3011322 13.19802856 C84.29662048 14.33820435 84.29210876 15.47838013 84.28746033 16.65310669 C84.27562968 19.48063208 84.2591463 22.30805496 84.2386322 25.13552856 C61.16841428 27.44545593 61.16841428 27.44545593 54.2386322 25.13552856 C54.24529404 26.13919968 54.25195587 27.14287079 54.25881958 28.17695618 C54.31964745 37.63784474 54.3646129 47.09869361 54.39406872 56.55973339 C54.40972137 61.42370443 54.43095241 66.28751755 54.46495056 71.15139771 C54.49755818 75.84574752 54.51548823 80.53994547 54.52326393 85.2343998 C54.52880491 87.02496036 54.53962511 88.81551266 54.55582237 90.60600853 C54.57761541 93.11497299 54.58059836 95.62331077 54.57920837 98.13235474 C54.5899942 98.87178818 54.60078003 99.61122162 54.6118927 100.37306213 C54.58545243 104.78674761 54.00607716 107.64821636 51.2386322 111.13552856 C49.01792908 111.75076294 49.01792908 111.75076294 46.4573822 111.72927856 C45.53312439 111.72670044 44.60886658 111.72412231 43.65660095 111.72146606 C42.69367126 111.69310669 41.73074158 111.66474731 40.7386322 111.63552856 C39.77570251 111.63810669 38.81277283 111.64068481 37.82066345 111.64334106 C30.88130302 111.54655779 30.88130302 111.54655779 28.62112427 110.10102844 C26.47525823 107.05023376 26.84677879 103.86161206 26.89805603 100.26760864 C26.89739891 99.06726234 26.89739891 99.06726234 26.89672852 97.84266663 C26.89881923 95.19654984 26.92216326 92.55106597 26.94566345 89.90505981 C26.95125841 88.07089077 26.95552898 86.23671724 26.95852661 84.40254211 C26.9699833 79.57405224 26.99945755 74.7458329 27.03263855 69.91744995 C27.06332169 64.9908311 27.07702819 60.06416854 27.09214783 55.13748169 C27.12432647 45.47004509 27.17553277 35.80280932 27.2386322 26.13552856 C26.27973083 26.1460022 25.32082947 26.15647583 24.33287048 26.16726685 C20.78082501 26.20342185 17.22879586 26.22641249 13.67662048 26.24539185 C12.13818122 26.25545974 10.59976113 26.26911503 9.06138611 26.28640747 C6.85219087 26.31062173 4.64324825 26.32200347 2.4339447 26.33084106 C1.74430634 26.34116364 1.05466797 26.35148621 0.34413147 26.36212158 C-1.35937686 26.36252335 -3.06222723 26.25743882 -4.7613678 26.13552856 C-6.7613678 24.13552856 -6.7613678 24.13552856 -7.00428772 21.8130188 C-7.00017883 20.86628296 -6.99606995 19.91954712 -6.99183655 18.94412231 C-6.98990295 17.91738403 -6.98796936 16.89064575 -6.98597717 15.83279419 C-6.97373108 14.75707153 -6.96148499 13.68134888 -6.9488678 12.57302856 C-6.94822327 11.49343872 -6.94757874 10.41384888 -6.94691467 9.30154419 C-6.89444439 0.02596341 -6.89444439 0.02596341 0 0 Z " fill="#080C0B" transform="translate(439.76136779785156,591.8644714355469)"/>
<path d="M0 0 C1.08474609 0.01160156 1.08474609 0.01160156 2.19140625 0.0234375 C5.46531142 0.90027471 7.06718444 2.19269014 9.4375 4.625 C9.92931044 7.47784133 10.09376952 9.73439873 10.03877258 12.5848999 C10.04304471 13.39277742 10.04731683 14.20065493 10.05171841 15.03301358 C10.05996291 17.74359945 10.03244041 20.45264236 10.00512695 23.16308594 C10.00371679 25.10453759 10.00450783 27.04599192 10.00733948 28.98744202 C10.00877629 34.26206311 9.97934341 39.53611772 9.94446969 44.81060696 C9.91325042 50.32123901 9.91027894 55.8318835 9.90434265 61.34259033 C9.8887912 71.77966818 9.84774499 82.21648471 9.7975952 92.65344739 C9.74174233 104.53477659 9.71422542 116.41611815 9.68911803 128.29754591 C9.63683038 152.74018049 9.54785762 177.1825646 9.4375 201.625 C3.1675 201.955 -3.1025 202.285 -9.5625 202.625 C-11.08570366 199.57859269 -10.71783424 196.40293888 -10.72312927 193.05987549 C-10.72821709 192.27019088 -10.73330491 191.48050626 -10.73854691 190.66689181 C-10.75431237 188.00611978 -10.76280721 185.34537499 -10.77124023 182.68457031 C-10.78077536 180.7827029 -10.79066636 178.88083724 -10.80088806 176.97897339 C-10.83231128 170.7203783 -10.85254343 164.46176975 -10.87109375 158.203125 C-10.87439107 157.13914458 -10.87768839 156.07516417 -10.88108563 154.97894192 C-10.91186689 144.94871785 -10.93858083 134.91849085 -10.95550442 124.88823318 C-10.97742119 112.04805316 -11.01940938 99.2082908 -11.08894199 86.36827779 C-11.136147 77.34571533 -11.16043329 68.3232657 -11.1677013 59.3005836 C-11.17266271 53.9089405 -11.1877902 48.51776781 -11.2274456 43.12625885 C-11.2642635 38.05360854 -11.27273749 32.98169824 -11.25943947 27.90893936 C-11.2594935 26.04731158 -11.26982245 24.18565141 -11.2911911 22.32414627 C-11.31882094 19.78122153 -11.30938959 17.24100535 -11.29075623 14.69805908 C-11.30755115 13.9620564 -11.32434608 13.22605372 -11.34164995 12.46774793 C-11.26605074 8.33670671 -10.47122965 6.07191812 -7.66566563 3.16584396 C-5.16846809 0.8936913 -3.48279669 -0.16199054 0 0 Z " fill="#070A0A" transform="translate(507.5625,167.375)"/>
<path d="M0 0 C2.8125 2.5 2.8125 2.5 5 5 C5.33 5.33 5.66 5.66 6 6 C6.14842275 8.62283655 6.23531465 11.22240645 6.28125 13.84765625 C6.30886414 15.05378822 6.30886414 15.05378822 6.33703613 16.2842865 C6.39595136 18.87694743 6.44850459 21.46968184 6.5 24.0625 C6.55202464 26.60173989 6.60560762 29.1409131 6.66296387 31.68003845 C6.69849554 33.25969132 6.73111941 34.8394142 6.7598877 36.41920471 C6.87104817 41.44844617 7.16056977 46.4472291 7.50927734 51.46582031 C8.10855276 60.44129757 8.1455337 69.39445107 8.1328125 78.38671875 C8.13348877 80.10390741 8.13446146 81.82109597 8.13571167 83.5382843 C8.13717228 87.10731941 8.13508667 90.6763292 8.13037109 94.24536133 C8.12466172 98.78370257 8.12797096 103.3219848 8.13394356 107.86032391 C8.13758263 111.39596489 8.13639554 114.93159223 8.13381577 118.46723366 C8.1331564 120.13951436 8.13393957 121.81179637 8.13629532 123.48407555 C8.1458188 132.13630586 7.96768756 140.66912886 7.20907593 149.29585266 C6.95547593 152.57586569 6.99612246 155.79296583 7.140625 159.078125 C7.57334387 179.09000318 7.57334387 179.09000318 3.21875 183.8828125 C0.08122496 186.43012798 -3.0449929 188.05342247 -7 189 C-10.906246 188.09436196 -11.73754808 187.39367788 -14 184 C-14.25726891 182.04740715 -14.25726891 182.04740715 -14.26742554 179.78952026 C-14.27595551 178.93174484 -14.28448547 178.07396942 -14.29327393 177.19020081 C-14.29191437 175.78289955 -14.29191437 175.78289955 -14.29052734 174.34716797 C-14.29724457 173.35656876 -14.30396179 172.36596954 -14.31088257 171.34535217 C-14.32992399 168.06091327 -14.33379048 164.77667822 -14.3359375 161.4921875 C-14.34236331 159.20874955 -14.34909151 156.92531243 -14.35610962 154.64187622 C-14.36809928 149.848471 -14.37178892 145.05513792 -14.37060547 140.26171875 C-14.37040268 134.1317349 -14.39765613 128.00221675 -14.43214989 121.87234306 C-14.45444001 117.15214941 -14.45844228 112.43206721 -14.45738602 107.71182632 C-14.45974066 105.45288622 -14.46855641 103.19394297 -14.48405075 100.93505478 C-14.503744 97.76611017 -14.49785804 94.59816139 -14.48583984 91.42919922 C-14.50269836 90.04011604 -14.50269836 90.04011604 -14.51989746 88.62297058 C-14.4661524 83.01912898 -13.48704743 78.95339342 -10.90674782 73.96220589 C-8.32887794 68.3836852 -10.10123991 63.5934229 -11.9375 58.125 C-15.01781294 48.01330133 -14.79825626 37.59940694 -14.94433594 27.10498047 C-14.99431464 24.31713321 -15.09732705 21.53898442 -15.2265625 18.75390625 C-15.27734106 17.25264755 -15.32692437 15.75134768 -15.375 14.25 C-15.42398438 12.97640625 -15.47296875 11.7028125 -15.5234375 10.390625 C-14.74513534 5.34908561 -12.17151281 2.61112241 -8.0625 -0.4375 C-4.98119011 -1.27785724 -3.05054624 -0.93384069 0 0 Z " fill="#090B0B" transform="translate(646,260)"/>
<path d="M0 0 C4.09127537 1.24199431 7.44831042 3.01081042 10.5 6.0625 C10.59352163 8.27894582 10.61463074 10.49844655 10.60920715 12.71685791 C10.60859686 13.77252964 10.60859686 13.77252964 10.60797423 14.84952807 C10.60526068 17.22556746 10.595236 19.60152008 10.58520508 21.97753906 C10.58161163 23.67398504 10.57840612 25.37043188 10.57556152 27.06687927 C10.56616237 31.68893575 10.54982274 36.3109414 10.53119111 40.93296909 C10.5195692 43.81870112 10.50889721 46.70443531 10.49844933 49.59017181 C10.46518492 58.61319019 10.42710218 67.63617233 10.38308412 76.65914464 C10.33237333 87.08512226 10.29812321 97.51098508 10.27790338 107.93706536 C10.26123082 115.988135 10.22936378 124.03905658 10.18605727 132.09002662 C10.16054243 136.9018957 10.14162309 141.71358 10.13868141 146.52552032 C10.13553142 151.05315836 10.11356908 155.58031656 10.07712555 160.10780525 C10.06700475 161.76983722 10.06368407 163.43192657 10.06765556 165.0939846 C10.072039 167.36327838 10.05193877 169.6310908 10.02571106 171.90020752 C10.02072507 173.17006123 10.01573908 174.43991493 10.010602 175.74824905 C9.41680685 179.60249587 8.16605389 181.28095669 5.5 184.0625 C4.95686126 183.78622709 4.41372252 183.50995419 3.85412502 183.22530937 C2.17915396 182.39796502 0.47324619 181.63203198 -1.24962521 180.90971565 C-4.56323669 179.25975213 -6.92347696 177.7362758 -9.5 175.0625 C-11.14595644 169.65322798 -10.95585167 164.33237191 -10.84399414 158.74169922 C-10.85071922 157.07389863 -10.86220108 155.40611148 -10.87806702 153.7383728 C-10.90679997 149.22096458 -10.8669182 144.7065361 -10.81292272 140.18945456 C-10.76638543 135.45926491 -10.77762647 130.72917793 -10.78111267 125.99880981 C-10.77825203 118.05778576 -10.73250441 110.11791759 -10.65942383 102.17724609 C-10.57529893 92.99794449 -10.55075863 83.82001697 -10.559928 74.64036548 C-10.56806453 65.80513789 -10.54199376 56.970369 -10.4975872 48.13525772 C-10.47882675 44.37695518 -10.47061514 40.61884809 -10.47059822 36.86050034 C-10.46846247 32.43588058 -10.43592064 28.01248517 -10.37987328 23.58823013 C-10.36395448 21.96493526 -10.35817307 20.34150456 -10.36327362 18.71813965 C-10.36846587 16.50095602 -10.3367404 14.2872641 -10.29554749 12.07052612 C-10.28679124 10.83058836 -10.27803499 9.5906506 -10.2690134 8.31313896 C-9.00144016 2.95507504 -5.67246632 0.10129404 0 0 Z " fill="#050706" transform="translate(371.5,262.9375)"/>
<path d="M0 0 C7.36494246 5.28738464 12.03262842 10.76998999 14.75 19.375 C15.76368956 30.01874033 14.32662914 39.75441471 7.54296875 48.4375 C1.0318467 55.03104132 -6.6337137 58.17415559 -15.89868164 58.38037109 C-22.75513549 58.36230835 -28.34056685 58.23458762 -34 54 C-34.89912109 53.41605469 -34.89912109 53.41605469 -35.81640625 52.8203125 C-42.31885719 48.07338287 -45.51023033 40.46930901 -48 33 C-48.70704672 22.57975405 -48.67195932 14.58039585 -41.75 6.3125 C-29.45004449 -4.0306444 -14.88042529 -8.10277173 0 0 Z " fill="#F3F4F4" transform="translate(665,620)"/>
<path d="M0 0 C1.084021 0.00523682 2.16804199 0.01047363 3.28491211 0.01586914 C5.03964844 0.02070312 5.03964844 0.02070312 6.82983398 0.02563477 C8.67738281 0.03820312 8.67738281 0.03820312 10.56225586 0.05102539 C12.41560547 0.05779297 12.41560547 0.05779297 14.30639648 0.06469727 C17.37089703 0.07652931 20.43530307 0.09301366 23.49975586 0.11352539 C24.67101997 2.45605362 24.61445142 3.79398702 24.59550476 6.40270996 C24.59135559 7.30288345 24.58720642 8.20305695 24.58293152 9.13050842 C24.57312759 10.1207048 24.56332367 11.11090118 24.55322266 12.13110352 C24.5468277 13.17181503 24.54043274 14.21252655 24.53384399 15.28477478 C24.5109898 18.73817187 24.48040456 22.19144637 24.44897461 25.64477539 C24.42975441 28.03609083 24.41069824 30.42740759 24.39179993 32.81872559 C24.35076584 37.83581359 24.30553153 42.85284439 24.2578125 47.86987305 C24.1971781 54.31309146 24.15029604 60.75632911 24.10698223 67.19968414 C24.07169781 72.13924968 24.0274496 77.07870477 23.98063087 82.01817322 C23.9595244 84.39449973 23.9416405 86.77085705 23.92697716 89.14723206 C23.9055055 92.46363646 23.87160186 95.7796864 23.83447266 99.09594727 C23.82887581 100.58124184 23.82887581 100.58124184 23.82316589 102.09654236 C23.81055725 102.99671585 23.79794861 103.89688934 23.78495789 104.82434082 C23.77812831 105.60895439 23.77129873 106.39356796 23.7642622 107.2019577 C23.49975586 109.11352539 23.49975586 109.11352539 21.49975586 111.11352539 C17.89546912 111.59318332 14.25734065 111.48390965 10.62475586 111.48852539 C9.61799805 111.51301758 8.61124023 111.53750977 7.57397461 111.56274414 C6.60331055 111.56661133 5.63264648 111.57047852 4.63256836 111.57446289 C3.74456543 111.58268066 2.8565625 111.59089844 1.94165039 111.59936523 C-1.41085126 110.93235081 -2.4200623 109.81572379 -4.50024414 107.11352539 C-4.88030423 104.47365046 -5.0181777 102.25556504 -4.97021484 99.62060547 C-4.97350044 98.49490646 -4.97350044 98.49490646 -4.97685242 97.34646606 C-4.97916732 94.85821737 -4.95283822 92.37114872 -4.92602539 89.88305664 C-4.9210924 88.13262811 -4.91779945 86.38219426 -4.9160614 84.63175964 C-4.90840834 80.94704506 -4.88784416 77.26271702 -4.85693359 73.578125 C-4.8179636 68.93217989 -4.79950428 64.28648682 -4.78949165 59.64039803 C-4.75365718 43.44388247 -4.65818676 27.24918227 -4.04321289 11.06274414 C-4.00521072 10.03929398 -3.96720856 9.01584381 -3.92805481 7.96138 C-3.58114365 0.16260441 -3.58114365 0.16260441 0 0 Z " fill="#090E0E" transform="translate(545.500244140625,591.886474609375)"/>
<path d="M0 0 C2.80185432 2.04465352 4.71186881 3.68959616 5.47741699 7.17126465 C5.67963252 9.96118792 5.71794146 12.7143435 5.70703125 15.51171875 C5.72228851 16.59227036 5.73754578 17.67282196 5.75326538 18.78611755 C5.79760492 22.42012419 5.80553444 26.05324291 5.8125 29.6875 C5.83404214 32.25701307 5.85727811 34.82651242 5.88208008 37.39599609 C5.93880756 43.84769746 5.96377805 50.29921853 5.97911167 56.75113678 C5.99400973 62.72593721 6.02336169 68.70057432 6.05761719 74.67529297 C6.11530122 84.90429674 6.15273958 95.1332713 6.17943954 105.36240005 C6.18748653 108.12038453 6.19820356 110.87834863 6.2093811 113.63632202 C6.22611314 118.02071263 6.23185797 122.40499481 6.22951126 126.78941536 C6.23014089 128.41259317 6.23414078 130.03577379 6.24180222 131.65893364 C6.27709408 139.67530686 6.21997015 147.22103104 4 155 C-1.94 155.33 -7.88 155.66 -14 156 C-14.22315656 136.39859316 -14.42494917 116.79710757 -14.59840012 97.1951952 C-14.67947406 88.09376639 -14.76810665 78.99252824 -14.87451172 69.89135742 C-14.96723094 61.95914367 -15.04579043 54.02693797 -15.10732102 46.0944187 C-15.14039922 41.89382701 -15.18058416 37.69357366 -15.2377243 33.49323463 C-15.29128538 29.53954902 -15.32590831 25.58614923 -15.34602928 21.63215637 C-15.35674719 20.18127277 -15.3743763 18.73042117 -15.39944649 17.27971458 C-15.43265722 15.29797352 -15.43853055 13.31583069 -15.4430542 11.33381653 C-15.45411572 10.22489957 -15.46517723 9.11598261 -15.47657394 7.9734621 C-14.88399445 4.27621284 -13.62132806 2.62961431 -11 0 C-7.22426023 -1.25857992 -3.74622187 -1.30363032 0 0 Z " fill="#080A0A" transform="translate(579,238)"/>
<path d="M0 0 C6.90105239 4.59618224 13.44714058 10.36711733 15.59765625 18.6796875 C17.09249767 28.79976392 16.38269749 37.68058946 10.66796875 46.3203125 C5.17651361 53.29716125 -2.421451 57.62035937 -11.23828125 58.73046875 C-21.31224077 59.00837108 -28.67941205 56.9134991 -36.39453125 50.2734375 C-43.38280332 43.01440212 -46.18095602 35.84737647 -46.57421875 25.82421875 C-46.31654046 17.83619186 -44.68255864 12.06731926 -39.02734375 6.30078125 C-28.34036558 -2.68082806 -12.98247858 -6.96799698 0 0 Z " fill="#F2F3F2" transform="translate(378.01171875,619.67578125)"/>
<path d="M0 0 C6.27 0.33 12.54 0.66 19 1 C19.8905124 4.56204961 20.13438008 7.20348191 20.15390015 10.83151245 C20.16250061 12.02315002 20.17110107 13.2147876 20.17996216 14.4425354 C20.18422211 15.7465329 20.18848206 17.0505304 20.19287109 18.39404297 C20.20077637 19.78389692 20.20904558 21.17374884 20.21765137 22.56359863 C20.24381461 27.12310847 20.25916977 31.68262724 20.2734375 36.2421875 C20.27879886 37.81336599 20.28417637 39.38454443 20.28956985 40.95572281 C20.31118707 47.49085889 20.32992433 54.02599256 20.34119225 60.56115532 C20.35743821 69.9208595 20.39064452 79.28014906 20.44759309 88.63969696 C20.48629411 95.22495494 20.50582489 101.81010201 20.51111281 108.39547074 C20.51476507 112.32718906 20.52677299 116.25846458 20.55921555 120.19005966 C20.58930087 123.88875206 20.59560696 127.58673379 20.58383179 131.28552246 C20.58350607 133.28588515 20.6079667 135.28620403 20.63320923 137.28640747 C20.56511033 147.08786781 20.56511033 147.08786781 17.46353149 150.853302 C16.6505661 151.56171234 15.83760071 152.27012268 15 153 C8.58504675 152.11034987 4.06135187 148.99039453 0 144 C-1.40504639 139.27767641 -1.26886271 134.77009022 -1.13525391 129.87304688 C-1.13242925 128.45316773 -1.13402417 127.03327401 -1.13967896 125.61340332 C-1.14253647 121.77799235 -1.08395376 117.94573904 -1.01393938 114.11105919 C-0.95122007 110.09670615 -0.94553623 106.08227228 -0.9336853 102.06750488 C-0.90266302 94.47389317 -0.8206864 86.88172942 -0.72019041 79.28875399 C-0.60822811 70.64081248 -0.55338749 61.99280003 -0.50323606 53.34431362 C-0.39884471 35.56203346 -0.22104682 17.78118647 0 0 Z " fill="#070A09" transform="translate(395,321)"/>
<path d="M0 0 C3.43683518 1.4927668 6.33581486 3.33581486 9 6 C9.3008194 8.0453949 9.3008194 8.0453949 9.37268066 10.61499023 C9.40407639 11.58774399 9.43547211 12.56049774 9.46781921 13.56272888 C9.49197403 14.63386429 9.51612885 15.70499969 9.54101562 16.80859375 C9.57354935 17.93399063 9.60608307 19.05938751 9.63960266 20.21888733 C9.92501157 30.61428477 10.11757013 41.01284229 10.28078461 51.41085815 C10.40217845 59.0916508 10.57001834 66.76829773 10.8014226 74.44658375 C10.97955263 80.50522579 11.07984816 86.56305341 11.15397644 92.62380981 C11.19694319 95.19503312 11.26409821 97.76597295 11.3561554 100.33590698 C12.03169238 119.96768544 12.03169238 119.96768544 8.62954712 125.04541016 C4.94201174 128.77363475 0.729136 130.85219324 -4 133 C-5.36359232 133.95832863 -6.7140514 134.93975759 -8 136 C-10.43050971 133.93648445 -11.8529461 132.71517686 -12.50615788 129.53836918 C-12.5089648 128.61200877 -12.51177172 127.68564837 -12.5146637 126.73121643 C-12.52738815 125.66434601 -12.54011261 124.59747559 -12.55322266 123.49827576 C-12.54669678 122.33296829 -12.5401709 121.16766083 -12.53344727 119.96704102 C-12.54206284 118.73578491 -12.55067841 117.50452881 -12.55955505 116.23596191 C-12.57837059 112.86166889 -12.57910894 109.48835747 -12.57023358 106.11408734 C-12.56512222 103.29596333 -12.57241748 100.47792734 -12.57970566 97.65981239 C-12.59670614 91.01067879 -12.59313781 84.36177467 -12.57641602 77.71264648 C-12.55949568 70.85621771 -12.57532694 64.00042562 -12.6076389 57.14406639 C-12.63434255 51.25431186 -12.64160875 45.36475543 -12.63312382 39.47494644 C-12.62819655 35.95857771 -12.6303985 32.44259203 -12.65091133 28.92627144 C-12.67269301 25.00471227 -12.65386086 21.08391935 -12.63110352 17.16235352 C-12.64279572 15.99907028 -12.65448792 14.83578705 -12.66653442 13.63725281 C-12.57376003 5.79465995 -12.57376003 5.79465995 -9.67149353 1.77500916 C-6.09758214 -0.59958969 -4.22556546 -0.65569119 0 0 Z " fill="#090B0B" transform="translate(680,289)"/>
<path d="M0 0 C1.21537697 0.00153328 1.21537697 0.00153328 2.45530701 0.00309753 C3.07277298 0.00441177 3.69023895 0.00572601 4.32641602 0.00708008 C4.45858498 12.54459183 4.58907577 25.08211991 4.71756744 37.61966991 C4.77731518 43.44469733 4.83758822 49.26971822 4.89916992 55.09472656 C4.92310765 57.36694323 4.9470335 59.63916003 4.97094727 61.91137695 C4.98275024 63.02730791 4.99455322 64.14323887 5.00671387 65.29298592 C5.0643559 70.82182326 5.1176307 76.35064622 5.16186523 81.87960815 C5.17895308 84.00461834 5.19604289 86.12962852 5.21313477 88.25463867 C5.22119141 89.27378294 5.22924805 90.29292721 5.23754883 91.34295464 C5.28361808 96.68264537 5.35805832 102.01997782 5.48288727 107.35841274 C5.53124424 109.47930525 5.5699138 111.60011254 5.60461426 113.7212677 C5.64666286 116.14218442 5.70727198 118.56289127 5.79138184 120.98271179 C5.88865048 128.38373068 5.88865048 128.38373068 2.92993164 131.6640625 C-1.03622638 133.70999604 -3.12220165 134.52233091 -7.67358398 134.00708008 C-11.56024164 131.95270389 -14.25944709 130.24949075 -15.67358398 126.00708008 C-15.76754863 124.35175637 -15.80418533 122.69289771 -15.80729675 121.03491211 C-15.81156174 120.0085968 -15.81582672 118.98228149 -15.82022095 117.92486572 C-15.81976776 116.79957458 -15.81931458 115.67428345 -15.81884766 114.51489258 C-15.82220627 113.32933777 -15.82556488 112.14378296 -15.82902527 110.92230225 C-15.8369038 107.6703061 -15.84020317 104.41834824 -15.84084105 101.16634369 C-15.84179048 98.45249465 -15.84546905 95.73865175 -15.84901315 93.02480507 C-15.85715563 86.62371129 -15.85959752 80.22263157 -15.85888672 73.8215332 C-15.85828551 67.2146552 -15.86884643 60.60785872 -15.88463038 54.00100136 C-15.89769557 48.33044868 -15.90307107 42.6599227 -15.90243131 36.98935509 C-15.90217608 33.60169992 -15.905041 30.21411725 -15.91560936 26.82647705 C-15.92536254 23.05067086 -15.92254985 19.27507689 -15.91650391 15.49926758 C-15.92212341 14.37397644 -15.92774292 13.2486853 -15.93353271 12.08929443 C-15.92933823 11.06297913 -15.92514374 10.03666382 -15.92082214 8.97924805 C-15.92163929 7.63973587 -15.92163929 7.63973587 -15.92247295 6.27316284 C-15.67358398 4.00708008 -15.67358398 4.00708008 -13.67358398 1.00708008 C-11.82592773 0.49536133 -11.82592773 0.49536133 -9.61108398 0.31958008 C-8.89823242 0.25383789 -8.18538086 0.1880957 -7.45092773 0.12036133 C-4.96161346 0.01882812 -2.49090146 -0.0040763 0 0 Z " fill="#090B0B" transform="translate(512.673583984375,415.992919921875)"/>
<path d="M0 0 C2.77015284 1.61324602 4.19692197 2.46567943 6 5 C6.88566447 8.80928089 6.7787538 12.5482569 6.71289062 16.44384766 C6.71902374 18.17872688 6.71902374 18.17872688 6.72528076 19.94865417 C6.7312965 23.77110059 6.6943491 27.59182126 6.65625 31.4140625 C6.65013493 34.06776613 6.64618251 36.72138996 6.64489746 39.37509155 C6.63751976 44.93518322 6.60762181 50.49477995 6.5625 56.0546875 C6.50469686 63.19173695 6.48404682 70.32838863 6.4751358 77.46564674 C6.46803208 82.9439405 6.44759629 88.42216002 6.42338562 93.90040207 C6.41196971 96.53270092 6.40245578 99.1650087 6.39485168 101.79732132 C6.38114588 105.47002178 6.35389224 109.14235708 6.32226562 112.81494141 C6.31891205 114.45608665 6.31891205 114.45608665 6.31549072 116.13038635 C6.30407043 117.12856888 6.29265015 118.1267514 6.28088379 119.15518188 C6.2719598 120.45761306 6.2719598 120.45761306 6.26285553 121.78635597 C6 124 6 124 4 127 C-2.39299729 126.12991522 -8.30980799 124.8760435 -12.85864258 119.94049072 C-17.31452419 112.36477713 -15.47974153 100.6480632 -15.28915405 92.21748734 C-15.22346504 88.81176407 -15.22092993 85.40601847 -15.21289062 81.99975586 C-15.19595016 77.11449316 -15.15661846 72.23030522 -15.09162903 67.34544849 C-14.98143389 58.83676853 -15.07972498 50.34384587 -15.265625 41.8359375 C-15.32689491 38.35279684 -15.38432256 34.86962015 -15.43981934 31.38638306 C-15.47975913 29.18043837 -15.5292334 26.97464456 -15.58850098 24.76913452 C-15.66536858 21.71137283 -15.69760824 18.65623906 -15.71875 15.59765625 C-15.75164124 14.70666229 -15.78453247 13.81566833 -15.81842041 12.89767456 C-15.80712283 9.30631414 -15.78109984 6.9602906 -13.46313477 4.11056519 C-8.86009663 0.08231003 -6.15114544 -1.65607762 0 0 Z " fill="#050708" transform="translate(342,295)"/>
<path d="M0 0 C3.42757153 0.91104596 7.55145551 2.00848676 10.1015625 4.55859375 C10.22665517 6.96597308 10.2876055 9.34607852 10.30688477 11.75512695 C10.31678436 12.51008957 10.32668396 13.26505219 10.33688354 14.04289246 C10.36870161 16.56502075 10.39339087 19.08716652 10.41796875 21.609375 C10.43857636 23.37933292 10.45957373 25.14928633 10.48094177 26.91923523 C10.52504766 30.65617247 10.56590591 34.39312619 10.60424805 38.13012695 C10.67139447 44.66982755 10.74929054 51.20939082 10.82805443 57.74896049 C10.88116113 62.27379436 10.92612792 66.79845246 10.95401001 71.32351685 C10.96537759 73.08368063 10.97696098 74.84384303 10.98876953 76.60400391 C10.99446772 77.45486132 11.0001659 78.30571873 11.00603676 79.1823597 C11.0468972 83.85021458 11.15479124 88.50718272 11.35717487 93.17083073 C11.44201928 95.16219323 11.5066275 97.15438602 11.57054138 99.14653015 C11.64817269 101.48612262 11.7600822 103.82496806 11.91493225 106.16072083 C12.10418424 113.38773422 12.10418424 113.38773422 9.17263794 116.81118774 C5.75675559 119.57136032 3.11695647 121.34785161 -1.2109375 122.24609375 C-4.73247583 121.34523511 -5.83533419 120.57956645 -7.8984375 117.55859375 C-9.91762108 111.25340728 -10.28312225 104.88393066 -10.2734375 98.30859375 C-10.27472656 97.38763916 -10.27601563 96.46668457 -10.27734375 95.51782227 C-10.17683561 89.00706468 -9.02057709 83.60602348 -6.8046875 77.46484375 C-4.66871767 70.61500947 -5.05424205 64.21454763 -7.8984375 57.6875 C-11.01485316 48.66229891 -10.49487503 39.23801927 -10.41992188 29.79248047 C-10.39830065 26.53799501 -10.41989115 23.28567215 -10.4453125 20.03125 C-10.44267232 17.95702639 -10.43755377 15.88280412 -10.4296875 13.80859375 C-10.43778442 12.83881592 -10.44588135 11.86903809 -10.45422363 10.86987305 C-10.36155452 4.24092285 -10.36155452 4.24092285 -8.10351562 0.9140625 C-5.27547108 -0.82434575 -3.20982022 -0.58305723 0 0 Z " fill="#0A0C0C" transform="translate(607.8984375,351.44140625)"/>
<path d="M0 0 C0.88211655 -0.0071553 1.76423309 -0.01431061 2.67308044 -0.02168274 C4.52610269 -0.02942139 6.37921696 -0.02452947 8.23217773 -0.00756836 C11.05562979 0.01169852 13.87418003 -0.02782112 16.69726562 -0.07226562 C18.50651332 -0.07255596 20.3157655 -0.06941672 22.125 -0.0625 C23.37839928 -0.08542366 23.37839928 -0.08542366 24.65711975 -0.10881042 C30.1739063 0.00010365 33.13645955 1.32391276 37.23326111 5.01676941 C38.74822236 7.03512519 39.01383466 8.2544937 39.12109375 10.76171875 C38.50690694 14.63109564 37.96612648 16.6998933 35.49609375 19.69921875 C31.89153331 22.13086666 28.58489185 21.9294548 24.32421875 21.89453125 C23.64180115 21.89170135 22.95938354 21.88887146 22.25628662 21.88595581 C20.08604068 21.87479973 17.91621404 21.84970432 15.74609375 21.82421875 C14.27083931 21.81418301 12.79557838 21.80505819 11.3203125 21.796875 C7.71210433 21.77487562 4.10414 21.74037758 0.49609375 21.69921875 C0.5118042 22.91504639 0.52751465 24.13087402 0.54370117 25.38354492 C0.59808176 29.90284578 0.63247347 34.42211781 0.66088867 38.94165039 C0.67595676 40.89612698 0.69641499 42.85056987 0.72241211 44.80493164 C0.7588824 47.61743498 0.77583997 50.42949049 0.7890625 53.2421875 C0.80454636 54.11320602 0.82003021 54.98422455 0.83598328 55.88163757 C0.83730362 60.66248275 0.59770015 63.80849421 -2.50390625 67.69921875 C-5.43663321 69.9802286 -8.74089518 70.25562968 -12.41654968 70.12402344 C-16.47061319 69.29896786 -19.12122747 67.01818186 -21.50390625 63.69921875 C-22.49872768 59.77542602 -22.41549525 55.97910857 -22.328125 51.94921875 C-22.32770706 50.81774414 -22.32728912 49.68626953 -22.32685852 48.52050781 C-22.31849317 46.13334677 -22.29306633 43.74619242 -22.25170898 41.359375 C-22.19160404 37.71122361 -22.19013181 34.06654413 -22.19726562 30.41796875 C-22.18185611 28.09502647 -22.16308846 25.77210353 -22.140625 23.44921875 C-22.13931076 22.36157227 -22.13799652 21.27392578 -22.13664246 20.15332031 C-22.00727032 14.2263406 -21.77897872 10.17919942 -17.50390625 5.69921875 C-11.95638411 1.02433109 -7.12799386 -0.05972181 0 0 Z " fill="#070A0A" transform="translate(347.50390625,185.30078125)"/>
<path d="M0 0 C3.39464783 1.91909491 6.44520557 4.17351606 7.6100769 8.00848389 C7.80891023 10.33604014 7.78895001 12.56485874 7.68359375 14.8984375 C7.67368912 15.73339752 7.66378448 16.56835754 7.65357971 17.42861938 C7.61458574 20.07924765 7.52680706 22.72563757 7.4375 25.375 C7.40236608 27.17832533 7.3704307 28.981716 7.34179688 30.78515625 C7.26487474 35.19172169 7.14420848 39.59514397 7 44 C8.36934692 43.97643433 8.36934692 43.97643433 9.76635742 43.95239258 C13.1676201 43.9011303 16.56846963 43.86358561 19.9699707 43.83520508 C21.43943782 43.82015934 22.90886034 43.79971762 24.37817383 43.77368164 C26.4957177 43.73711045 28.61266565 43.72023199 30.73046875 43.70703125 C32.63928833 43.68346558 32.63928833 43.68346558 34.58666992 43.65942383 C39.24255352 44.12397984 41.71500502 45.99284177 45.3125 48.8125 C47 51 47 51 47.5 53.875 C46.74178895 58.61381905 44.68181791 61.65765904 40.94262695 64.64208984 C36.8132556 66.5476373 33.10612309 66.50547845 28.60546875 66.5390625 C27.69928299 66.55141937 26.79309723 66.56377625 25.85945129 66.57650757 C23.94567294 66.59603749 22.03179465 66.60729951 20.11791992 66.61083984 C17.20644414 66.62490846 14.29928327 66.69224838 11.38867188 66.76171875 C-4.18551196 66.94680778 -4.18551196 66.94680778 -9.13671875 62.7734375 C-10.7019043 60.99755859 -10.7019043 60.99755859 -12 59 C-12.54293701 58.31945557 -13.08587402 57.63891113 -13.64526367 56.93774414 C-15.71331479 52.45317772 -15.50759897 48.1073075 -15.5390625 43.22265625 C-15.55141937 42.17855087 -15.56377625 41.1344455 -15.57650757 40.05870056 C-15.59604717 37.85405062 -15.6073012 35.64931377 -15.61083984 33.44458008 C-15.6249401 30.07680735 -15.69231579 26.71273129 -15.76171875 23.34570312 C-15.77411606 21.20053729 -15.78333628 19.05535026 -15.7890625 16.91015625 C-15.81578033 15.90686783 -15.84249817 14.90357941 -15.87002563 13.86988831 C-15.8042483 7.08400498 -15.8042483 7.08400498 -13.5289917 4.01730347 C-9.35590749 0.24592476 -5.61802495 -1.6373091 0 0 Z " fill="#060908" transform="translate(341,463)"/>
<path d="M0 0 C1.43085937 0.00062691 1.43085937 0.00062691 2.890625 0.00126648 C4.90118035 0.00962392 6.91172845 0.03502117 8.921875 0.07641602 C11.99079109 0.13653834 15.0555794 0.13799184 18.125 0.13085938 C20.08336372 0.14626923 22.04170449 0.16503708 24 0.1875 C25.36898437 0.18947136 25.36898437 0.18947136 26.765625 0.19148254 C33.99500376 0.37863437 37.41685651 2.53463956 42.83569336 7.33764648 C46.31749199 11.80262318 45.69465242 17.2002859 45.62890625 22.609375 C45.63131821 23.74322128 45.63373016 24.87706757 45.63621521 26.04527283 C45.63523781 28.43654893 45.62187016 30.82784796 45.59692383 33.21899414 C45.56258279 36.87789741 45.57628106 40.53438932 45.59570312 44.19335938 C45.58880544 46.51954152 45.57913376 48.84571745 45.56640625 51.171875 C45.57136612 52.26468277 45.57632599 53.35749054 45.58143616 54.4834137 C45.46403072 62.05526203 45.46403072 62.05526203 43.08959961 65.98999023 C39.8152891 68.86414549 37.46916208 69.16092779 33.1015625 69.11328125 C29.70024318 68.64544179 27.58880645 66.98155746 25 64.82421875 C22.95485873 61.75650684 22.75172726 61.16853827 22.77294922 57.7199707 C22.77310028 56.89934647 22.77325134 56.07872223 22.77340698 55.23323059 C22.78372955 54.3518895 22.79405212 53.4705484 22.8046875 52.5625 C22.8075174 51.656707 22.81034729 50.750914 22.81326294 49.81767273 C22.82446036 46.92388717 22.84956411 44.03041081 22.875 41.13671875 C22.88503037 39.17513468 22.89415612 37.21354575 22.90234375 35.25195312 C22.92439827 30.44258915 22.95892511 25.63345638 23 20.82421875 C21.59306885 20.90893433 21.59306885 20.90893433 20.15771484 20.99536133 C16.65820641 21.19343446 13.15915453 21.36765435 9.65771484 21.52612305 C8.14615975 21.59935668 6.63502512 21.68191357 5.12451172 21.77416992 C2.94544069 21.90560367 0.76702792 22.00277864 -1.4140625 22.09375 C-3.37786865 22.19586792 -3.37786865 22.19586792 -5.38134766 22.30004883 C-10.1650043 21.67102799 -11.64717783 20.2184533 -15 16.82421875 C-16.015625 14.61328125 -16.015625 14.61328125 -16.25 12.44921875 C-16.35828125 11.74023438 -16.4665625 11.03125 -16.578125 10.30078125 C-14.51660904 1.46969262 -8.09609874 -0.20918317 0 0 Z " fill="#040707" transform="translate(647,185.17578125)"/>
<path d="M0 0 C3.84276152 1.03458964 6.8149274 3.26414791 9.03125 6.546875 C10.61134849 14.80872333 10.14746079 23.20957917 10.0090332 31.57983398 C9.98220441 33.51427128 9.96785652 35.44892242 9.96606445 37.38354492 C9.96295432 40.19821151 9.92112785 43.01003981 9.87109375 45.82421875 C9.87705063 46.67966782 9.88300751 47.53511688 9.8891449 48.41648865 C9.70720494 54.94273544 7.69353152 58.96800019 3.03125 63.546875 C-1.96176924 67.10726823 -6.83037482 67.01428651 -12.75 67.015625 C-13.68171021 67.02323853 -14.61342041 67.03085205 -15.57336426 67.03869629 C-17.5366753 67.049467 -19.5000435 67.05236275 -21.46337891 67.04785156 C-24.45963225 67.04687796 -27.45333383 67.08856014 -30.44921875 67.1328125 C-32.36197385 67.13801913 -34.27473781 67.1407077 -36.1875 67.140625 C-37.07828247 67.15702026 -37.96906494 67.17341553 -38.88684082 67.19030762 C-43.21431392 67.14242954 -46.08299762 66.91149775 -49.51757812 64.13476562 C-52.37499534 61.11797056 -52.88669811 60.40021469 -53.28125 56.296875 C-52.9137114 51.88641179 -51.73594254 49.94656869 -48.96875 46.546875 C-45.24127422 44.06189115 -42.5273481 44.38068379 -38.23828125 44.5703125 C-37.11265022 44.60785141 -37.11265022 44.60785141 -35.96427917 44.64614868 C-33.56947086 44.72826566 -31.17549761 44.82488552 -28.78125 44.921875 C-27.15693506 44.98012317 -25.53258593 45.03742627 -23.90820312 45.09375 C-19.92790586 45.23383174 -15.94829625 45.38692183 -11.96875 45.546875 C-12.0001709 44.36134033 -12.0315918 43.17580566 -12.06396484 41.9543457 C-12.17273616 37.54707113 -12.24150841 33.13991459 -12.29833984 28.73168945 C-12.32847497 26.82556189 -12.36939197 24.91957258 -12.42138672 23.01391602 C-12.49434975 20.27064913 -12.52823758 17.52921782 -12.5546875 14.78515625 C-12.58565521 13.93601151 -12.61662292 13.08686676 -12.64852905 12.21199036 C-12.65178396 6.46292762 -12.65178396 6.46292762 -10.73150635 3.88754272 C-7.42368017 0.95918916 -4.46983793 -0.30945032 0 0 Z " fill="#040808" transform="translate(682.96875,462.453125)"/>
<path d="M0 0 C3.6891038 1.67686536 6.33723849 3.95684399 9 7 C10.90285368 12.70856105 9.93261581 17.89501367 8.5390625 23.62109375 C6.3966882 33.3616391 6.47518389 43.13132565 6.375 53.0625 C6.33078836 55.93008482 6.28163841 58.7975571 6.23210144 61.66505432 C6.20000288 63.53582777 6.16939134 65.40662738 6.14033508 67.27745056 C6.02620267 74.42155885 5.79356051 81.55088934 5.4375 88.6875 C5.39351074 89.56994385 5.34952148 90.4523877 5.30419922 91.36157227 C5.20721997 93.24128145 5.10452936 95.12069555 5 97 C4.21496094 97.06058594 3.42992187 97.12117188 2.62109375 97.18359375 C1.57050781 97.26738281 0.51992188 97.35117187 -0.5625 97.4375 C-1.59503906 97.51871094 -2.62757813 97.59992188 -3.69140625 97.68359375 C-7.14798684 98.01415222 -10.56445776 98.49902057 -14 99 C-14.00808685 98.15190262 -14.01617371 97.30380524 -14.02450562 96.43000793 C-14.10288705 88.38420395 -14.19030377 80.33855747 -14.28752708 72.29295826 C-14.33718476 68.15798519 -14.38351376 64.02303397 -14.421875 59.88793945 C-14.45911816 55.8872179 -14.50557574 51.88669417 -14.55806351 47.88614464 C-14.57640263 46.37020066 -14.59158353 44.85421462 -14.60334396 43.33820534 C-14.67022434 35.00440769 -15.08544762 26.93434836 -16.54043579 18.70024109 C-17.38887217 13.71512102 -18.0190714 9.69845233 -15.3125 5.1875 C-10.46310894 0.60023819 -6.6166366 -0.99518518 0 0 Z " fill="#080A0A" transform="translate(612,205)"/>
<path d="M0 0 C3.58552881 1.63687185 4.79315055 2.68972583 7 6 C7.64538927 11.00913266 7.79699932 16.01159308 7.91992188 21.05786133 C7.97294438 22.71626949 8.0546106 24.37402964 8.16601562 26.02954102 C9.05631874 39.43637968 9.05631874 39.43637968 5.57421875 43.77752686 C1.7871027 47.22731352 -2.45130045 49.68713301 -7 52 C-10.16115776 50.63016497 -10.9927092 50.0109362 -13 47 C-13.3053894 45.11636353 -13.3053894 45.11636353 -13.38232422 42.97509766 C-13.41510468 42.17061188 -13.44788513 41.3661261 -13.48165894 40.53726196 C-13.50575836 39.67160614 -13.52985779 38.80595032 -13.5546875 37.9140625 C-13.58354034 37.02012787 -13.61239319 36.12619324 -13.64212036 35.20516968 C-13.69917575 33.31401134 -13.75095111 31.42268743 -13.79785156 29.53125 C-13.87454679 26.64207297 -13.98339077 23.75524914 -14.09375 20.8671875 C-14.14521026 19.02870022 -14.19475254 17.19015804 -14.2421875 15.3515625 C-14.27843231 14.48995514 -14.31467712 13.62834778 -14.35202026 12.7406311 C-14.4226893 8.60882767 -14.3526069 6.56375203 -12.10986328 2.97802734 C-8.41093373 -0.48977261 -4.89887388 -0.53596125 0 0 Z " fill="#090B0B" transform="translate(578,449)"/>
<path d="M0 0 C5.60925993 3.60645687 5.60925993 3.60645687 6.52746582 6.88116455 C6.69393741 9.13739009 6.67528529 11.32141587 6.5859375 13.58203125 C6.57744781 14.39621017 6.56895813 15.2103891 6.56021118 16.04924011 C6.52674176 18.63836525 6.4514836 21.22432381 6.375 23.8125 C6.34489164 25.5722205 6.31751734 27.33199004 6.29296875 29.09179688 C6.23207876 33.39671884 6.1146911 37.69483583 6 42 C-0.6 42.33 -7.2 42.66 -14 43 C-14.0919751 37.82129077 -14.17156441 32.64542887 -14.21972656 27.46655273 C-14.23980786 25.70603825 -14.26707879 23.94559018 -14.30175781 22.18530273 C-14.35043112 19.65071198 -14.37300305 17.11700505 -14.390625 14.58203125 C-14.41127014 13.79850784 -14.43191528 13.01498444 -14.45318604 12.2077179 C-14.45473193 8.41932138 -14.16030862 6.2509922 -12.10058594 3.02612305 C-8.59971049 -0.35065117 -4.72449721 -1.09152177 0 0 Z " fill="#070A09" transform="translate(409,222)"/>
<path d="M0 0 C3.75916716 2.05045481 5.62598016 3.43897024 8 7 C8.71249183 12.27741041 8.64556003 16.70887994 6.25 21.5 C2.3991592 25.778712 -0.47442579 27.76173828 -6.3125 28.3125 C-10.82549836 27.93004251 -12.62149063 27.00311944 -16 24 C-18.7469536 20.26017161 -20.37107328 16.63112004 -20.125 11.9375 C-19.23835677 7.30318952 -16.50816271 4.03985996 -13 1 C-8.64246297 -1.72235579 -4.84954427 -1.17666585 0 0 Z " fill="#040708" transform="translate(583,408)"/>
<path d="M0 0 C3.75292586 2.09297788 7.09246268 4.07895107 9 8 C9.73171915 12.64325487 9.50738769 16.67259308 7.3125 20.875 C4.9216619 24.1058623 3.73450325 25.58918766 0 27 C-4.68064855 27.69342941 -8.05488995 27.43755095 -12.375 25.4375 C-15.96710681 22.10197225 -17.75387961 18.9768847 -18.1640625 14.015625 C-17.91178891 9.00896445 -15.97719476 6.10332582 -12.66796875 2.4453125 C-8.41253735 -1.24206365 -5.45974292 -1.31786898 0 0 Z " fill="#060908" transform="translate(410,281)"/>
<path d="M0 0 C6.06504045 2.65125559 9.47640329 5.90130796 12 12 C12.72634876 16.60020881 12.43770606 18.33056721 9.875 22.25 C6.13355479 25.82877368 3.14588147 27.68705895 -2 28.4375 C-6.91422989 27.72084147 -9.80335444 25.10217354 -13.375 21.8125 C-15.67513747 17.83149284 -15.78592578 14.49327265 -15 10 C-11.78663573 3.69228495 -7.49853425 -1.32327075 0 0 Z " fill="#07090A" transform="translate(380,750)"/>
<path d="M0 0 C2.54348425 -0.13593443 5.07961496 -0.23448907 7.625 -0.3125 C8.33785156 -0.35439453 9.05070313 -0.39628906 9.78515625 -0.43945312 C13.83351196 -0.53230532 16.26404313 -0.20712546 19.4609375 2.39453125 C22.1776036 5.18224862 22.88308467 5.97114509 23.3125 9.75 C22.92590899 13.77054653 21.41771035 15.82675517 19 19 C20.49836105 22.11198065 22.19933758 25.0534615 24 28 C20.8125 28.4375 20.8125 28.4375 17 28 C15.49300905 26.32078152 14.43182371 24.55311519 13.265625 22.625 C11.97775101 20.64081369 11.97775101 20.64081369 8.6875 20.0625 C7.800625 20.041875 6.91375 20.02125 6 20 C6 22.64 6 25.28 6 28 C4.35 27.67 2.7 27.34 1 27 C-0.01894076 21.15111957 -0.11798453 15.49080831 -0.0625 9.5625 C-0.05798828 8.64017578 -0.05347656 7.71785156 -0.04882812 6.76757812 C-0.03713938 4.51164952 -0.02075455 2.25586033 0 0 Z " fill="#080909" transform="translate(627,750)"/>
<path d="M0 0 C2.475 0.495 2.475 0.495 5 1 C5.12190678 9.39802254 4.84327749 17.64251778 4 26 C-0.35386098 25.51623767 -2.20534968 24.35014434 -5 21 C-6.83036003 18.23439021 -8.51889565 15.40584978 -10.21875 12.55859375 C-11.94747532 10.07544664 -13.4842727 8.63853291 -16 7 C-15.88590318 9.10478604 -15.75834639 11.20884577 -15.625 13.3125 C-15.52058594 15.07013672 -15.52058594 15.07013672 -15.4140625 16.86328125 C-15.21386253 20.15699887 -15.21386253 20.15699887 -13 23 C-9.43230448 23.73606499 -9.43230448 23.73606499 -6 24 C-6.33 24.99 -6.66 25.98 -7 27 C-10.1875 27.8125 -10.1875 27.8125 -14 28 C-16.75 25.625 -16.75 25.625 -19 23 C-19.99 22.67 -20.98 22.34 -22 22 C-22.31806054 14.2723068 -22.32270836 8.06075526 -19 1 C-15.78187974 0.43682896 -13.71897843 0.5248131 -10.9609375 2.34765625 C-6.8667105 5.836183 -3.71379595 9.36393192 -1 14 C-0.67 9.38 -0.34 4.76 0 0 Z " fill="#0C0D0E" transform="translate(500,750)"/>
<path d="M0 0 C1.98 0 3.96 0 6 0 C6.33 3.3 6.66 6.6 7 10 C10.63 10.33 14.26 10.66 18 11 C18 7.37 18 3.74 18 0 C19.98 0 21.96 0 24 0 C24 9.24 24 18.48 24 28 C22.35 27.67 20.7 27.34 19 27 C17.8422494 23.52674819 17.93133348 20.63932552 18 17 C14.04 17 10.08 17 6 17 C6 20.63 6 24.26 6 28 C4.35 27.67 2.7 27.34 1 27 C-0.3308911 24.33821779 -0.11268993 22.31260604 -0.09765625 19.3359375 C-0.09443359 18.21445312 -0.09121094 17.09296875 -0.08789062 15.9375 C-0.07951172 14.761875 -0.07113281 13.58625 -0.0625 12.375 C-0.05798828 11.19164062 -0.05347656 10.00828125 -0.04882812 8.7890625 C-0.03701467 5.85932493 -0.02054258 2.92968728 0 0 Z " fill="#0A0B0D" transform="translate(560,750)"/>
<path d="M0 0 C3.02508145 1.73602105 5.41790069 3.83580137 7 7 C7.55846492 11.57758127 7.69273432 15.57370819 5.0625 19.5 C2.20657306 22.96172962 2.20657306 22.96172962 0.14453125 23.34375 C-6.03765952 23.75796714 -6.03765952 23.75796714 -8.89453125 21.5078125 C-11.8483711 18.04369862 -13.86957179 15.35645335 -14.3125 10.75 C-13.94713599 6.36563187 -12.73973233 4.38437523 -10 1 C-6.77140153 -0.61429923 -3.49006347 -0.59570657 0 0 Z " fill="#060A09" transform="translate(618,316)"/>
<path d="M0 0 C3.32461922 0.79324248 5.02799382 1.9204497 7.2265625 4.53125 C8.56560239 8.78467083 8.63705366 10.69384804 6.6640625 14.71875 C4.03303039 17.75455629 1.80794621 19.70401341 -1.7734375 21.53125 C-6.25969112 21.53125 -9.24155228 19.12129916 -12.7734375 16.53125 C-14.7734375 14.53125 -14.7734375 14.53125 -15.2109375 11.28125 C-14.63430104 6.33865173 -13.25116999 5.00898249 -9.7734375 1.53125 C-6.01289869 -0.97577587 -4.31387692 -0.61827552 0 0 Z " fill="#0A0C0C" transform="translate(510.7734375,384.46875)"/>
<path d="M0 0 C6.6 0 13.2 0 20 0 C20 1.65 20 3.3 20 5 C15.38 5.33 10.76 5.66 6 6 C5.67 7.65 5.34 9.3 5 11 C9.29 11 13.58 11 18 11 C18 12.98 18 14.96 18 17 C14.04 17 10.08 17 6 17 C6 18.65 6 20.3 6 22 C10.29 22 14.58 22 19 22 C19.33 23.65 19.66 25.3 20 27 C13.4 27 6.8 27 0 27 C0 18.09 0 9.18 0 0 Z " fill="#0B0C0C" transform="translate(596,750)"/>
<path d="M0 0 C6.27 0 12.54 0 19 0 C19.33 1.65 19.66 3.3 20 5 C15.05 5 10.1 5 5 5 C5 6.98 5 8.96 5 11 C8.96 11 12.92 11 17 11 C17 12.98 17 14.96 17 17 C13.37 17.33 9.74 17.66 6 18 C5.67 19.32 5.34 20.64 5 22 C5.74765625 21.97679687 6.4953125 21.95359375 7.265625 21.9296875 C8.25046875 21.91164063 9.2353125 21.89359375 10.25 21.875 C11.22453125 21.85179687 12.1990625 21.82859375 13.203125 21.8046875 C16.0196498 22.00137219 17.60949036 22.55431084 20 24 C20 24.99 20 25.98 20 27 C13.4 27 6.8 27 0 27 C0 18.09 0 9.18 0 0 Z " fill="#050708" transform="translate(662,750)"/>
<path d="M0 0 C2.875 1.5 2.875 1.5 5 3 C4.67 4.32 4.34 5.64 4 7 C3.39671875 6.88140625 2.7934375 6.7628125 2.171875 6.640625 C-2.89858507 5.73938128 -2.89858507 5.73938128 -7.5625 7.5 C-9.56142212 10.97638629 -9.62377806 13.04940561 -9 17 C-6.59272465 20.16384761 -5.02257696 21.70458888 -1.1875 22.8125 C-0.465625 22.874375 0.25625 22.93625 1 23 C1.33 21.68 1.66 20.36 2 19 C1.34 19 0.68 19 0 19 C0 17.02 0 15.04 0 13 C3 12 3 12 9 14 C9 18.29 9 22.58 9 27 C4.21779105 28.91288358 1.99258674 29.52553545 -3 29 C-8.21733886 26.28698379 -12.34961922 22.30076156 -15 17 C-15.55004295 11.27955337 -14.64364029 8.43145441 -11 4 C-7.37990563 0.37990563 -5.12435228 -0.74730137 0 0 Z " fill="#080A0B" transform="translate(416,749)"/>
<path d="M0 0 C-1.15173355 2.46800047 -2.04783565 4.04783565 -4 6 C-6.3828125 5.9765625 -6.3828125 5.9765625 -9.125 5.625 C-10.03507812 5.51414062 -10.94515625 5.40328125 -11.8828125 5.2890625 C-12.93082031 5.14597656 -12.93082031 5.14597656 -14 5 C-14.33 6.32 -14.66 7.64 -15 9 C-14.319375 9.268125 -13.63875 9.53625 -12.9375 9.8125 C-11.968125 10.204375 -10.99875 10.59625 -10 11 C-8.845 11.28875 -7.69 11.5775 -6.5 11.875 C-2.56893287 13.49215672 -1.64814924 16.33381598 -0.0625 20.125 C2 25.65594855 2 25.65594855 2 27 C-3.625 27.25 -3.625 27.25 -7 25 C-9.5254223 24.9744911 -9.5254223 24.9744911 -12.1875 25.375 C-13.08855469 25.48585938 -13.98960937 25.59671875 -14.91796875 25.7109375 C-15.60503906 25.80632813 -16.29210937 25.90171875 -17 26 C-17 24.35 -17 22.7 -17 21 C-13.535 20.505 -13.535 20.505 -10 20 C-10 19.34 -10 18.68 -10 18 C-10.61488281 17.68546875 -11.22976563 17.3709375 -11.86328125 17.046875 C-12.67152344 16.61890625 -13.47976563 16.1909375 -14.3125 15.75 C-15.11300781 15.33234375 -15.91351563 14.9146875 -16.73828125 14.484375 C-19.1656551 12.8912799 -20.49105052 11.46786253 -22 9 C-22.09145613 5.43321094 -20.99997631 3.99996795 -18.875 1.125 C-13.86422032 -2.85633732 -5.93495441 -0.76263409 0 0 Z " fill="#0B0C0D" transform="translate(356,750)"/>
<path d="M0 0 C5.94 0 11.88 0 18 0 C18 0.99 18 1.98 18 3 C15.35541621 4.32229189 13.32238699 4.09677194 10.375 4.0625 C9.37210938 4.05347656 8.36921875 4.04445313 7.3359375 4.03515625 C6.56507813 4.02355469 5.79421875 4.01195312 5 4 C5 6.31 5 8.62 5 11 C8.63 11 12.26 11 16 11 C15.67 12.65 15.34 14.3 15 16 C11.7 16 8.4 16 5 16 C5 17.65 5 19.3 5 21 C8.63 21 12.26 21 16 21 C16 22.98 16 24.96 16 27 C10.72 27 5.44 27 0 27 C0 18.09 0 9.18 0 0 Z " fill="#070708" transform="translate(516,750)"/>
<path d="M0 0 C3.02668297 2.62312524 4.6526057 4.29297627 5.453125 8.2265625 C5.6380098 12.17517366 5.24722354 14.53407871 3.375 18.0625 C1 20 1 20 -1.875 20.625 C-6.17786288 19.76442742 -7.8713545 18.05588631 -11 15 C-12.41000664 12.17998673 -12.24548451 10.12992745 -12 7 C-10.70685228 4.15507503 -9.68842011 2.48189408 -7.125 0.6875 C-4.40030962 -0.19401748 -2.84533549 -0.55518741 0 0 Z " fill="#363838" transform="translate(443,218)"/>
<path d="M0 0 C3.5625 0.9375 3.5625 0.9375 6.0625 3.0625 C8.05049759 6.87282871 7.77149436 8.85714404 6.5625 12.9375 C4.33024103 15.500464 2.98198631 15.87502331 -0.375 16.375 C-4.21618756 15.82625892 -5.78427313 14.74233983 -8.4375 11.9375 C-9.4375 9.5 -9.4375 9.5 -9.4375 6.9375 C-7.28423998 2.30799095 -5.36280526 -0.09750555 0 0 Z " fill="#EBF1F0" transform="translate(379.4375,756.0625)"/>
<path d="M0 0 C1.32 0 2.64 0 4 0 C4 7.26 4 14.52 4 22 C6.64 22 9.28 22 12 22 C14.5 23 14.5 23 16 24 C15.125 27.875 15.125 27.875 14 29 C9.15965284 29.16407956 4.76741373 28.95348275 0 28 C-1.18844008 22.38792186 -1.14830682 16.89378547 -1.125 11.1875 C-1.12886719 10.22134766 -1.13273437 9.25519531 -1.13671875 8.25976562 C-1.13542969 7.34259766 -1.13414062 6.42542969 -1.1328125 5.48046875 C-1.13168457 4.64410889 -1.13055664 3.80774902 -1.12939453 2.94604492 C-1 1 -1 1 0 0 Z " fill="#0C0E0E" transform="translate(436,749)"/>
<path d="M0 0 C0.99 0.66 1.98 1.32 3 2 C3 3.32 3 4.64 3 6 C2.01 6.66 1.02 7.32 0 8 C-0.73343428 11.06556598 -0.73343428 11.06556598 -1 14 C-0.34 14 0.32 14 1 14 C0.67 15.65 0.34 17.3 0 19 C-4.40147657 18.49697411 -6.75395419 16.97554199 -10 14 C-11.56935594 10.86128812 -11.35201103 8.46144178 -11 5 C-7.78103132 0.55024918 -5.47495108 -0.83314473 0 0 Z " fill="#D8F8F8" transform="translate(417,754)"/>
<path d="M0 0 C1.65 0 3.3 0 5 0 C4.86164197 4.45859862 4.71305421 8.91679786 4.5625 13.375 C4.52318359 14.64601563 4.48386719 15.91703125 4.44335938 17.2265625 C4.40146484 18.43828125 4.35957031 19.65 4.31640625 20.8984375 C4.26141968 22.57945557 4.26141968 22.57945557 4.20532227 24.29443359 C4 27 4 27 3 29 C-0.875 28.125 -0.875 28.125 -2 27 C-1.94583375 24.99622639 -1.81815889 22.99436246 -1.66015625 20.99609375 C-1.56669922 19.78115234 -1.47324219 18.56621094 -1.37695312 17.31445312 C-1.27318359 16.03505859 -1.16941406 14.75566406 -1.0625 13.4375 C-0.96259766 12.15423828 -0.86269531 10.87097656 -0.75976562 9.54882812 C-0.51125161 6.36548191 -0.25777637 3.18260742 0 0 Z " fill="#090A0A" transform="translate(461,750)"/>
<path d="M0 0 C5.94 0 11.88 0 18 0 C18 0.33 18 0.66 18 1 C12.39 1 6.78 1 1 1 C1.33 6.61 1.66 12.22 2 18 C2.99 17.67 3.98 17.34 5 17 C5 18.32 5 19.64 5 21 C8.63 21 12.26 21 16 21 C16 22.98 16 24.96 16 27 C10.72 27 5.44 27 0 27 C0 18.09 0 9.18 0 0 Z " fill="#424445" transform="translate(516,750)"/>
<path d="M0 0 C3.81270344 1.48973181 5.41914866 3.58663826 7.6875 6.9375 C8.28949219 7.81277344 8.89148438 8.68804688 9.51171875 9.58984375 C11 12 11 12 12 15 C11.0625 17.1875 11.0625 17.1875 10 19 C10 18.34 10 17.68 10 17 C8.906875 17.0825 7.81375 17.165 6.6875 17.25 C3 17 3 17 1.28125 15.40625 C-0.41976498 12.21166089 -0.29543078 9.8476928 -0.1875 6.25 C-0.16042969 5.07953125 -0.13335937 3.9090625 -0.10546875 2.703125 C-0.07066406 1.81109375 -0.03585937 0.9190625 0 0 Z " fill="#E2E2E3" transform="translate(484,757)"/>
<path d="M0 0 C1.258125 -0.04125 2.51625 -0.0825 3.8125 -0.125 C4.52019531 -0.14820313 5.22789062 -0.17140625 5.95703125 -0.1953125 C8 0 8 0 11 2 C11.375 4.5 11.375 4.5 11 7 C7.91111478 9.05925681 7.29064073 9.2390374 3.8125 9.125 C1.9253125 9.063125 1.9253125 9.063125 0 9 C0 6.03 0 3.06 0 0 Z " fill="#EDEDED" transform="translate(633,755)"/>
<path d="M0 0 C2.31043586 1.48976068 4.00902672 3.05643084 6 5 C6 5.66 6 6.32 6 7 C4.0625 6.625 4.0625 6.625 2 6 C1.67 5.34 1.34 4.68 1 4 C-4.78262322 3.47968872 -4.78262322 3.47968872 -9.8125 5.9375 C-10.534375 6.618125 -11.25625 7.29875 -12 8 C-12.99 8.33 -13.98 8.66 -15 9 C-14.7416116 5.51175659 -13.73533264 4.75785753 -11.0625 2.3125 C-6.7213497 -0.96551145 -5.29570844 -1.42576766 0 0 Z " fill="#17181A" transform="translate(342,295)"/>
<path d="M0 0 C3.11271734 2.69768836 4.77673986 4.28368764 5.3125 8.40234375 C5.3125 10.62395028 5.2209846 12.790154 5 15 C3.68 13.68 2.36 12.36 1 11 C1.33 10.01 1.66 9.02 2 8 C1.60602665 5.36195411 1.60602665 5.36195411 1 3 C-3.10899581 4.12795963 -7.07561214 5.33510818 -11 7 C-9.54588235 2.39529412 -9.54588235 2.39529412 -7.1875 0.6875 C-4.43733702 -0.17683694 -2.86326871 -0.55868658 0 0 Z " fill="#696967" transform="translate(443,218)"/>
<path d="M0 0 C0.99 0.33 1.98 0.66 3 1 C2.46890625 1.51949219 1.9378125 2.03898438 1.390625 2.57421875 C-3.15073247 7.05663851 -3.15073247 7.05663851 -7.25 11.9375 C-9.15066555 14.17757012 -10.12101847 14.69153769 -13 15 C-13 15.99 -13 16.98 -13 18 C-13.99 17.67 -14.98 17.34 -16 17 C-11.01595832 10.96668638 -5.58084697 5.4815829 0 0 Z " fill="#020304" transform="translate(261,596)"/>
<path d="M0 0 C1.98 0 3.96 0 6 0 C6 14.85 6 29.7 6 45 C5.67 45 5.34 45 5 45 C4.13486291 39.89947794 3.92339291 35.05326265 4.12109375 29.87890625 C4.14470474 29.13414536 4.16831573 28.38938446 4.19264221 27.62205505 C4.26855185 25.26864 4.35288327 22.91561642 4.4375 20.5625 C4.49079373 18.95639867 4.54353348 17.35027886 4.59570312 15.74414062 C4.724067 11.82918431 4.85997898 7.91455601 5 4 C4.34 3.67 3.68 3.34 3 3 C1.9805881 2.01979625 0.97753644 1.02196992 0 0 Z " fill="#FBFEFD" transform="translate(461,618)"/>
<path d="M0 0 C5.77669279 -0.46213542 8.40207206 0.55155405 13 4 C13.99 4.33 14.98 4.66 16 5 C16.95024979 8.69541586 16.95024979 11.30458414 16 15 C15.67 15 15.34 15 15 15 C14.6596875 13.39125 14.6596875 13.39125 14.3125 11.75 C12.83485722 7.52816349 11.80495992 6.24838541 8 4 C4.93443402 3.26656572 4.93443402 3.26656572 2 3 C1.01 2.67 0.02 2.34 -1 2 C-0.67 1.34 -0.34 0.68 0 0 Z " fill="#F4F5F6" transform="translate(334,292)"/>
<path d="M0 0 C0.63164063 0.0721875 1.26328125 0.144375 1.9140625 0.21875 C9.62568579 1.01880314 17.25180183 1.10180114 25 1 C23.33263592 3.04470249 22.47502434 3.92566921 19.82348633 4.34057617 C19.00130615 4.32486572 18.17912598 4.30915527 17.33203125 4.29296875 C16.43935547 4.28330078 15.54667969 4.27363281 14.62695312 4.26367188 C13.23379883 4.2259668 13.23379883 4.2259668 11.8125 4.1875 C10.87212891 4.17396484 9.93175781 4.16042969 8.96289062 4.14648438 C6.64134962 4.11113096 4.32096347 4.06178674 2 4 C2 3.34 2 2.68 2 2 C1.34 2 0.68 2 0 2 C0 1.34 0 0.68 0 0 Z " fill="#F5F9FA" transform="translate(594,776)"/>
<path d="M0 0 C2.20914 3.31371 2.22481553 4.3446021 2.125 8.1875 C2.10695313 9.08855469 2.08890625 9.98960937 2.0703125 10.91796875 C2.03550781 11.94857422 2.03550781 11.94857422 2 13 C-1.875 11.25 -1.875 11.25 -3 9 C-3.039992 7.00039988 -3.04346799 4.99952758 -3 3 C-2.34 3 -1.68 3 -1 3 C-0.67 2.01 -0.34 1.02 0 0 Z " fill="#E6FEFE" transform="translate(409,757)"/>
<path d="M0 0 C0.5625 1.9375 0.5625 1.9375 1 4 C-0.73956658 5.73956658 -3.1936622 5.37190386 -5.5625 5.5625 C-7.08037109 5.68818359 -7.08037109 5.68818359 -8.62890625 5.81640625 C-9.41136719 5.87699219 -10.19382812 5.93757812 -11 6 C-11 4.35 -11 2.7 -11 1 C-7.7 1.33 -4.4 1.66 -1 2 C-0.67 1.34 -0.34 0.68 0 0 Z " fill="#17191D" transform="translate(531,761)"/>
<path d="M0 0 C2.475 0.99 2.475 0.99 5 2 C4.1646875 2.37125 4.1646875 2.37125 3.3125 2.75 C0.85901229 3.98599111 0.85901229 3.98599111 -1.5625 6.0625 C-4 8 -4 8 -7 9 C-6.82374165 6.62051228 -6.30280227 5.29774151 -4.59765625 3.62109375 C-3.09350908 2.37884514 -1.54870149 1.18623944 0 0 Z " fill="#101113" transform="translate(334,295)"/>
<path d="M0 0 C0.70189453 0.00451172 1.40378906 0.00902344 2.12695312 0.01367188 C3.85550538 0.02543073 5.58401365 0.04336546 7.3125 0.0625 C7.3125 0.7225 7.3125 1.3825 7.3125 2.0625 C-1.1025 2.5575 -1.1025 2.5575 -9.6875 3.0625 C-10.0175 2.4025 -10.3475 1.7425 -10.6875 1.0625 C-7.06882441 -0.1437252 -3.76243749 -0.04566918 0 0 Z " fill="#E1E3E2" transform="translate(363.6875,616.9375)"/>
<path d="M0 0 C1.81961377 3.0697301 2.17937008 4.86398949 1.625 8.375 C1.12207271 11.95465898 0.90709512 15.37670963 1 19 C0.34 19.33 -0.32 19.66 -1 20 C-1.02696009 17.2291017 -1.04681952 14.4584655 -1.0625 11.6875 C-1.07087891 10.90181641 -1.07925781 10.11613281 -1.08789062 9.30664062 C-1.09111328 8.54931641 -1.09433594 7.79199219 -1.09765625 7.01171875 C-1.10289307 6.31522217 -1.10812988 5.61872559 -1.11352539 4.90112305 C-1 3 -1 3 0 0 Z " fill="#F9FAFC" transform="translate(506,753)"/>
<path d="M0 0 C2.97 0 5.94 0 9 0 C3.85714286 4.42857143 3.85714286 4.42857143 0 5 C0 3.35 0 1.7 0 0 Z " fill="#BBBCBD" transform="translate(521,766)"/>
<path d="M0 0 C1.98 0 3.96 0 6 0 C6.33 1.32 6.66 2.64 7 4 C4.36 4 1.72 4 -1 4 C-0.67 2.68 -0.34 1.36 0 0 Z " fill="#40413F" transform="translate(438,221)"/>
<path d="M0 0 C0.66 0.66 1.32 1.32 2 2 C-1.3 4.64 -4.6 7.28 -8 10 C-8.66 9.67 -9.32 9.34 -10 9 C-6.7 6.03 -3.4 3.06 0 0 Z " fill="#1F2221" transform="translate(612,601)"/>
<path d="M0 0 C0.66 0.66 1.32 1.32 2 2 C-0.97 4.31 -3.94 6.62 -7 9 C-7 6 -7 6 -5.46875 4.39453125 C-4.49421875 3.61142578 -4.49421875 3.61142578 -3.5 2.8125 C-2.8503125 2.28269531 -2.200625 1.75289062 -1.53125 1.20703125 C-1.0259375 0.80871094 -0.520625 0.41039062 0 0 Z " fill="#DDE0E0" transform="translate(385,666)"/>
<path d="M0 0 C1.98 0.99 1.98 0.99 4 2 C3.34 2.66 2.68 3.32 2 4 C1.53709779 6.66242821 1.53709779 6.66242821 1.375 9.625 C1.30023438 10.62789062 1.22546875 11.63078125 1.1484375 12.6640625 C1.09945313 13.43492187 1.05046875 14.20578125 1 15 C0.67 15 0.34 15 0 15 C0 10.05 0 5.1 0 0 Z " fill="#F9FAFB" transform="translate(495,617)"/>
<path d="M0 0 C0.99 0.66 1.98 1.32 3 2 C2.01 2.495 2.01 2.495 1 3 C0.53476937 4.89533342 0.53476937 4.89533342 0.375 7.0625 C0.25125 8.361875 0.1275 9.66125 0 11 C-0.66 11 -1.32 11 -2 11 C-1.85957123 9.35369672 -1.71250671 7.70795821 -1.5625 6.0625 C-1.48128906 5.14597656 -1.40007813 4.22945312 -1.31640625 3.28515625 C-1 1 -1 1 0 0 Z " fill="#F1F1F1" transform="translate(621,225)"/>
<path d="M0 0 C3.96 0 7.92 0 12 0 C11.67 0.99 11.34 1.98 11 3 C7.37 2.34 3.74 1.68 0 1 C0 0.67 0 0.34 0 0 Z " fill="#F8F8F9" transform="translate(470,204)"/>
<path d="M0 0 C1.04449911 3.13349732 0.93423645 3.98968256 0 7 C0.66 7.33 1.32 7.66 2 8 C0.68 8 -0.64 8 -2 8 C-2 5.69 -2 3.38 -2 1 C-1.34 0.67 -0.68 0.34 0 0 Z " fill="#181819" transform="translate(518,768)"/>
<path d="M0 0 C0.33 0 0.66 0 1 0 C1 1.65 1 3.3 1 5 C1.66 5 2.32 5 3 5 C2.67 6.65 2.34 8.3 2 10 C1.01 9.67 0.02 9.34 -1 9 C-0.67 8.67 -0.34 8.34 0 8 C0.07148199 6.64756083 0.08399454 5.29165633 0.0625 3.9375 C0.041875 2.638125 0.02125 1.33875 0 0 Z " fill="#CDD9D8" transform="translate(415,763)"/>
<path d="M0 0 C0.66 0 1.32 0 2 0 C2.66 2.97 3.32 5.94 4 9 C3.01 8.67 2.02 8.34 1 8 C-0.35439668 5.29120665 -0.06501451 2.99066732 0 0 Z " fill="#F5F9FA" transform="translate(406,760)"/>
<path d="M0 0 C0.66 0 1.32 0 2 0 C2 2.97 2 5.94 2 9 C0.68 7.68 -0.64 6.36 -2 5 C-1.34 3.35 -0.68 1.7 0 0 Z " fill="#4F504F" transform="translate(446,224)"/>
<path d="M0 0 C0.66 0.33 1.32 0.66 2 1 C1.34 2.65 0.68 4.3 0 6 C-0.99 6 -1.98 6 -3 6 C-3 4.68 -3 3.36 -3 2 C-2.01 1.34 -1.02 0.68 0 0 Z " fill="#4B4D4C" transform="translate(434,223)"/>
<path d="M0 0 C2.64 0 5.28 0 8 0 C3 2.5 3 2.5 -2 5 C-1.34 3.35 -0.68 1.7 0 0 Z " fill="#616260" transform="translate(434,220)"/>
<path d="M0 0 C0.99 0.99 1.98 1.98 3 3 C2.360625 3.12375 1.72125 3.2475 1.0625 3.375 C0.381875 3.58125 -0.29875 3.7875 -1 4 C-1.33 4.66 -1.66 5.32 -2 6 C-2.66 6 -3.32 6 -4 6 C-2.84826645 3.53199953 -1.95216435 1.95216435 0 0 Z " fill="#171918" transform="translate(366,264)"/>
<path d="M0 0 C0 0.99 0 1.98 0 3 C-3 5.1875 -3 5.1875 -6 7 C-6 6.01 -6 5.02 -6 4 C-3 1.8125 -3 1.8125 0 0 Z " fill="#141716" transform="translate(331,599)"/>
</svg>
