<?xml version="1.0" encoding="UTF-8"?>
<svg version="1.1" xmlns="http://www.w3.org/2000/svg" width="1024" height="1024">
<path d="M0 0 C337.92 0 675.84 0 1024 0 C1024 337.92 1024 675.84 1024 1024 C686.08 1024 348.16 1024 0 1024 C0 686.08 0 348.16 0 0 Z " fill="#EEECE9" transform="translate(0,0)"/>
<path d="M0 0 C0.75925781 -0.03738281 1.51851563 -0.07476562 2.30078125 -0.11328125 C5.97015647 0.54132088 7.20424694 1.46355416 9.6875 4.3125 C10.47009695 8.397655 10.35661479 12.46335304 10.31568909 16.61132812 C10.32633067 18.52332378 10.32633067 18.52332378 10.33718723 20.47394562 C10.35615471 24.01471201 10.34385126 27.55478983 10.3264643 31.09553909 C10.31311693 34.91293267 10.32851787 38.73022373 10.34028625 42.54760742 C10.35868701 50.02688217 10.35013441 57.50589606 10.33219803 64.98516273 C10.31818513 71.06247427 10.3142764 77.13971488 10.3176403 83.21704102 C10.31811775 84.08125687 10.31859519 84.94547273 10.3190871 85.83587694 C10.32011341 87.5913919 10.32116876 89.34690684 10.32225286 91.10242176 C10.33082485 106.63343761 10.31412879 122.16432734 10.28442383 137.6953125 C10.25558521 152.77349139 10.24850223 167.85148859 10.26391602 182.9296875 C10.28066854 199.34000148 10.28472209 215.75022914 10.26720566 232.16054535 C10.26536122 233.90968322 10.2635265 235.6588211 10.26170158 237.40795898 C10.26078949 238.26861859 10.2598774 239.12927819 10.25893768 240.01601839 C10.25332637 246.087598 10.25664498 252.15913555 10.26324654 258.23071289 C10.27096974 265.62772103 10.26426386 273.02455014 10.2390715 280.42152214 C10.22655274 284.19723173 10.22045842 287.97266228 10.23161316 291.74838257 C10.24346464 295.8370725 10.22444236 299.92502571 10.2021637 304.01367188 C10.21452485 305.81306591 10.21452485 305.81306591 10.22713572 307.64881134 C10.21608803 308.74112816 10.20504034 309.83344498 10.19365788 310.9588623 C10.19246639 311.90295708 10.19127491 312.84705185 10.19004732 313.81975555 C9.53764401 317.05581841 8.19317583 318.23652681 5.6875 320.3125 C3.8125 321.3125 3.8125 321.3125 1.6875 321.3125 C-1.1875 319.6875 -1.1875 319.6875 -4.3125 317.3125 C-5.87102471 316.37848358 -5.87102471 316.37848358 -7.46103477 315.42559814 C-9.59290307 313.61500497 -10.24535619 312.61110701 -10.86551023 309.85311127 C-11.08446175 306.59776148 -11.10197802 303.39056656 -11.0609436 300.12792969 C-11.06889242 298.87761837 -11.07684123 297.62730705 -11.08503091 296.33910751 C-11.10620868 292.87081728 -11.08994686 289.40355761 -11.06752992 285.93531227 C-11.04985074 282.19425606 -11.06673137 278.45333508 -11.07925415 274.71228027 C-11.09823743 267.38448924 -11.0850246 260.0570919 -11.06072827 252.72933006 C-11.03349439 244.19798819 -11.03676343 235.66674025 -11.04099493 227.13536596 C-11.04737576 211.91438184 -11.02403349 196.69358487 -10.98486328 181.47265625 C-10.94685444 166.69916077 -10.93268801 151.92588463 -10.94384766 137.15234375 C-10.95596043 121.06941936 -10.9556143 104.98659145 -10.93287599 88.90367508 C-10.93046138 87.18907929 -10.92804941 85.47448349 -10.92564011 83.7598877 C-10.92443303 82.91624845 -10.92322595 82.07260921 -10.9219823 81.20340514 C-10.91422017 75.2550178 -10.9150127 69.30666634 -10.9188118 63.35827637 C-10.92305397 56.11026371 -10.91262104 48.86244327 -10.88358469 41.61448479 C-10.86908685 37.91560847 -10.86095071 34.21701223 -10.87007141 30.51811218 C-10.87971226 26.51082095 -10.85841446 22.50429792 -10.83389282 18.49707031 C-10.84145147 17.32441494 -10.84901012 16.15175957 -10.85679781 14.94356918 C-10.77131884 7.08194211 -10.77131884 7.08194211 -8.40491295 3.11346436 C-5.49825403 0.61166895 -3.76488429 0.1202232 0 0 Z " fill="#0B0C0C" transform="translate(473.3125,205.6875)"/>
<path d="M0 0 C0.7321875 0.07992187 1.464375 0.15984375 2.21875 0.2421875 C5.54949342 1.53113958 7.21202855 3.40286326 9.5 6.125 C10.13085651 9.17147541 10.13085651 9.17147541 10.13923645 12.64460754 C10.15177262 13.60939647 10.15177262 13.60939647 10.16456205 14.59367609 C10.18649186 16.74895801 10.17288133 18.90253139 10.15942383 21.05786133 C10.16786269 22.61394366 10.17848373 24.17001544 10.1911068 25.72606945 C10.21936613 29.98821578 10.21661451 34.24986343 10.20877242 38.51207542 C10.20582679 43.07127601 10.23176924 47.63031978 10.25422668 52.18945312 C10.2931787 61.03801113 10.30568265 69.88640888 10.30798298 78.73504508 C10.31013665 85.87574803 10.32055717 93.01639065 10.33734131 100.15707397 C10.33971731 101.16829423 10.34209331 102.17951449 10.34454131 103.22137779 C10.34942109 105.26888516 10.35434235 107.31639242 10.3593049 109.36389959 C10.39162044 122.8167972 10.41873171 136.2696778 10.43005371 149.72261047 C10.45190824 173.37249651 10.56212182 197.018976 10.79366845 220.66773158 C10.8935402 230.98525593 10.96262095 241.30300208 11.02746296 251.62079906 C11.07964498 259.71587666 11.15738962 267.80992141 11.26670569 275.90443075 C11.34643536 282.02148209 11.37913544 288.13783998 11.39365196 294.25543213 C11.40706795 296.72960022 11.4360278 299.2037418 11.48191261 301.67752075 C11.54200762 305.0204562 11.54684958 308.35903638 11.53759766 311.70239258 C11.58378345 313.14862865 11.58378345 313.14862865 11.63090229 314.62408161 C11.56719658 318.74203065 11.37861735 321.14939539 8.56074142 324.27832603 C4.08610947 327.8769885 0.36658695 330.58512447 -5.5 330.125 C-8.25881303 327.93420778 -9.36590847 326.05991069 -9.86710656 322.56546593 C-10.0222706 319.17398682 -10.037463 315.80396906 -10.0146637 312.40893555 C-10.02160922 311.1014545 -10.02855475 309.79397345 -10.03571075 308.44687176 C-10.05436108 304.81918781 -10.04802515 301.19191144 -10.03755772 297.56421041 C-10.03057246 293.65138267 -10.04655844 289.73863922 -10.05955505 285.82583618 C-10.0812112 278.16125495 -10.08106413 270.4968221 -10.07292951 262.83222032 C-10.06663318 256.60382035 -10.06776316 250.37546371 -10.07420158 244.14706421 C-10.07510324 243.26106968 -10.07600489 242.37507514 -10.07693387 241.46223229 C-10.07878504 239.66242861 -10.0806476 237.86262493 -10.08252143 236.06282127 C-10.09910534 219.18060582 -10.09037547 202.2984739 -10.07353585 185.41626346 C-10.0588364 169.96488778 -10.07346968 154.51370652 -10.10230602 139.06235588 C-10.13168482 123.20242815 -10.14267686 107.3425902 -10.13312382 91.48263645 C-10.13210125 89.68940291 -10.13110664 87.89616936 -10.1301403 86.10293579 C-10.12966391 85.220599 -10.12918752 84.33826222 -10.1286967 83.42918795 C-10.12653067 77.20726385 -10.13634661 70.98542457 -10.15091133 64.76351929 C-10.16840989 57.18246282 -10.168353 49.60165432 -10.14555968 42.02060771 C-10.1343951 38.15154251 -10.13130452 34.28291457 -10.14986038 30.41386795 C-10.16970339 26.22257136 -10.15093096 22.03234594 -10.12818909 17.84106445 C-10.14002482 16.6139358 -10.15186054 15.38680716 -10.16405493 14.12249279 C-10.06273012 4.97410002 -10.06273012 4.97410002 -7.10331631 1.858078 C-4.31731235 0.0033813 -3.26485743 -0.47133505 0 0 Z " fill="#070908" transform="translate(540.5,196.875)"/>
<path d="M0 0 C3.50165231 1.89680719 6.45397557 4.20895788 7.64256597 8.10771286 C7.89243614 10.65749626 7.91410623 13.12367522 7.86196899 15.68531799 C7.8741155 17.13941894 7.8741155 17.13941894 7.88650739 18.62289566 C7.90505115 21.86867255 7.87359656 25.11201571 7.84228516 28.35766602 C7.84522212 30.68538974 7.85119749 33.01311132 7.85998535 35.34082031 C7.8748173 41.66117868 7.84596915 47.98066323 7.80855227 54.3009007 C7.77926218 60.24165399 7.7804417 66.18234207 7.78072636 72.12315582 C7.78003982 83.89402616 7.74592644 95.66456207 7.69287109 107.43530273 C7.64142837 118.85527118 7.6131043 130.27498242 7.61083984 141.69506836 C7.61069699 142.39858295 7.61055413 143.10209755 7.61040695 143.82693077 C7.61026833 144.52923342 7.61012972 145.23153607 7.6099869 145.95512062 C7.60969651 147.36918962 7.60939402 148.78325862 7.60907936 150.19732761 C7.60892432 150.89470977 7.60876928 151.59209192 7.60860953 152.31060687 C7.60496154 163.85445832 7.57600616 175.39826118 7.54742002 186.94207263 C7.5390549 190.88248588 7.53471231 194.82288732 7.531147 198.76330757 C7.52424769 204.95134346 7.50185044 211.13913798 7.46737671 217.32707977 C7.45700498 219.60028526 7.45171371 221.87352035 7.45182419 224.1467495 C7.45105855 227.24530725 7.43188514 230.34321352 7.40786743 233.44166565 C7.41183112 234.34516347 7.4157948 235.24866129 7.4198786 236.17953783 C7.36105859 240.93439415 7.11114408 244.15163561 4 248 C1.703125 249.58203125 1.703125 249.58203125 -1 250 C-3.39099707 248.64975419 -5.18131079 247.42408347 -7.25 245.6875 C-7.79140625 245.25759766 -8.3328125 244.82769531 -8.890625 244.38476562 C-12.49116848 241.50883152 -12.49116848 241.50883152 -14 240 C-14.09988494 237.59534627 -14.13442226 235.21935783 -14.12698364 232.81414795 C-14.12854363 232.05319706 -14.13010362 231.29224617 -14.13171089 230.50823617 C-14.13572398 227.93873975 -14.13253001 225.36930162 -14.12939453 222.79980469 C-14.13074848 220.96542832 -14.13252838 219.13105222 -14.13470459 217.29667664 C-14.13928096 212.29861891 -14.13748819 207.30058172 -14.1343255 202.30252361 C-14.13180142 197.07979462 -14.13413972 191.85706744 -14.13571167 186.63433838 C-14.13753387 177.8576221 -14.13512641 169.08091422 -14.13037109 160.30419922 C-14.12493515 150.15401368 -14.12668607 140.00384825 -14.1321975 129.85366321 C-14.13673527 121.14875197 -14.13737571 112.44384679 -14.13475883 103.73893476 C-14.13319885 98.53586068 -14.13299454 93.33279606 -14.13629532 88.1297226 C-14.13918342 83.23457715 -14.13718099 78.3394576 -14.13140106 73.44431496 C-14.13007823 71.6468008 -14.13045952 69.84928446 -14.13266373 68.05177116 C-14.13539406 65.59908018 -14.13197088 63.1464723 -14.12698364 60.69378662 C-14.13032973 59.62524511 -14.13032973 59.62524511 -14.13374341 58.53511691 C-14.11934143 54.88604079 -13.79862826 51.55590273 -13 48 C-12.90809864 45.68895121 -12.86997748 43.37536989 -12.875 41.0625 C-12.87113281 39.28552734 -12.87113281 39.28552734 -12.8671875 37.47265625 C-12.91731446 34.10536971 -12.91731446 34.10536971 -13.484375 31.25 C-14.24067355 26.48302735 -14.30500939 21.75730796 -14.375 16.9375 C-14.41238281 15.95716797 -14.44976562 14.97683594 -14.48828125 13.96679688 C-14.57646826 6.75015984 -14.57646826 6.75015984 -11.6015625 2.87890625 C-7.48245681 -0.09600342 -5.13627432 -0.58940853 0 0 Z " fill="#0D0E0E" transform="translate(443,252)"/>
<path d="M0 0 C1.08474609 0.01160156 1.08474609 0.01160156 2.19140625 0.0234375 C5.46531142 0.90027471 7.06718444 2.19269014 9.4375 4.625 C9.92931044 7.47784133 10.09376952 9.73439873 10.03877258 12.5848999 C10.04304471 13.39277742 10.04731683 14.20065493 10.05171841 15.03301358 C10.05996291 17.74359945 10.03244041 20.45264236 10.00512695 23.16308594 C10.00371679 25.10453759 10.00450783 27.04599192 10.00733948 28.98744202 C10.00877629 34.26206311 9.97934341 39.53611772 9.94446969 44.81060696 C9.91325042 50.32123901 9.91027894 55.8318835 9.90434265 61.34259033 C9.8887912 71.77966818 9.84774499 82.21648471 9.7975952 92.65344739 C9.74174233 104.53477659 9.71422542 116.41611815 9.68911803 128.29754591 C9.63683038 152.74018049 9.54785762 177.1825646 9.4375 201.625 C3.1675 201.955 -3.1025 202.285 -9.5625 202.625 C-11.08570366 199.57859269 -10.71783424 196.40293888 -10.72312927 193.05987549 C-10.72821709 192.27019088 -10.73330491 191.48050626 -10.73854691 190.66689181 C-10.75431237 188.00611978 -10.76280721 185.34537499 -10.77124023 182.68457031 C-10.78077536 180.7827029 -10.79066636 178.88083724 -10.80088806 176.97897339 C-10.83231128 170.7203783 -10.85254343 164.46176975 -10.87109375 158.203125 C-10.87439107 157.13914458 -10.87768839 156.07516417 -10.88108563 154.97894192 C-10.91186689 144.94871785 -10.93858083 134.91849085 -10.95550442 124.88823318 C-10.97742119 112.04805316 -11.01940938 99.2082908 -11.08894199 86.36827779 C-11.136147 77.34571533 -11.16043329 68.3232657 -11.1677013 59.3005836 C-11.17266271 53.9089405 -11.1877902 48.51776781 -11.2274456 43.12625885 C-11.2642635 38.05360854 -11.27273749 32.98169824 -11.25943947 27.90893936 C-11.2594935 26.04731158 -11.26982245 24.18565141 -11.2911911 22.32414627 C-11.31882094 19.78122153 -11.30938959 17.24100535 -11.29075623 14.69805908 C-11.30755115 13.9620564 -11.32434608 13.22605372 -11.34164995 12.46774793 C-11.26605074 8.33670671 -10.47122965 6.07191812 -7.66566563 3.16584396 C-5.16846809 0.8936913 -3.48279669 -0.16199054 0 0 Z " fill="#070A0A" transform="translate(507.5625,167.375)"/>
<path d="M0 0 C2.8125 2.5 2.8125 2.5 5 5 C5.33 5.33 5.66 5.66 6 6 C6.14843064 8.79168196 6.23532378 11.56151607 6.28125 14.35546875 C6.30886414 15.63530388 6.30886414 15.63530388 6.33703613 16.94099426 C6.39596131 19.68975701 6.44854656 22.43858793 6.5 25.1875 C6.55188217 27.8899794 6.60531476 30.59239116 6.66296387 33.29475403 C6.69873313 34.97672134 6.7313277 36.65876092 6.7598877 38.34086609 C6.85934852 43.07990473 7.12822241 47.77513742 7.50927734 52.50024414 C8.14349546 61.02993116 8.14492292 69.53023864 8.1328125 78.078125 C8.13348828 79.78293878 8.13446058 81.48775246 8.13571167 83.19256592 C8.13717415 86.73906383 8.13508015 90.28553632 8.13037109 93.83203125 C8.12465714 98.35278965 8.12797259 102.87348888 8.13394356 107.39424515 C8.13757365 110.90489134 8.13639967 114.41552372 8.13381577 117.92617035 C8.13315417 119.59255734 8.13394773 121.25894564 8.13629532 122.92533112 C8.14477797 130.63130998 8.12293966 138.25024576 7.20907593 145.91445923 C6.88233141 149.1737489 7.01824017 152.39106918 7.140625 155.66015625 C7.17176321 157.75070661 7.19165912 159.84119913 7.21142578 161.93188477 C7.2371843 163.35463517 7.28447074 164.77715519 7.35302734 166.19848633 C7.87020782 177.61714869 7.87020782 177.61714869 4.74438477 181.59979248 C1.25628524 184.9140925 -2.49262996 187.33701205 -7 189 C-10.26047882 188.22587828 -11.63645421 187.36354579 -14 185 C-14.25726891 183.15483761 -14.25726891 183.15483761 -14.26742554 180.87181091 C-14.27595551 180.006996 -14.28448547 179.14218109 -14.29327393 178.25115967 C-14.29236755 177.30001282 -14.29146118 176.34886597 -14.29052734 175.36889648 C-14.29724457 174.36868973 -14.30396179 173.36848297 -14.31088257 172.33796692 C-14.32995182 169.01562591 -14.33379204 165.69348616 -14.3359375 162.37109375 C-14.34236203 160.06380632 -14.34909012 157.75651971 -14.35610962 155.44923401 C-14.36810669 150.60277418 -14.37178823 145.75638574 -14.37060547 140.90991211 C-14.37040278 134.71152024 -14.3976421 128.51358949 -14.43214989 122.31530666 C-14.45444057 117.54449888 -14.45844224 112.77380137 -14.45738602 108.00294685 C-14.45974112 105.71888714 -14.46855947 103.43482435 -14.48405075 101.15081596 C-14.50374247 97.94584324 -14.4978583 94.74185531 -14.48583984 91.53686523 C-14.49707886 90.599888 -14.50831787 89.66291077 -14.51989746 88.69754028 C-14.46647594 83.06464784 -13.50375939 78.9749472 -10.90674782 73.95842075 C-8.31741476 68.36590264 -10.11073852 63.58047317 -11.96484375 58.10546875 C-14.57339563 49.11559366 -14.83359669 40.21827652 -15.00366211 30.90185547 C-15.06299334 27.97566888 -15.16973693 25.05359559 -15.27929688 22.12890625 C-15.32576474 20.25267254 -15.3694849 18.37636831 -15.41015625 16.5 C-15.44528824 15.63431396 -15.48042023 14.76862793 -15.51661682 13.87670898 C-15.55585892 9.60404355 -15.35112826 6.87668136 -12.59545898 3.49609375 C-8.27732437 -0.65672427 -5.93498943 -1.8168335 0 0 Z " fill="#090B0A" transform="translate(646,260)"/>
<path d="M0 0 C4.09127537 1.24199431 7.44831042 3.01081042 10.5 6.0625 C10.59352163 8.27894582 10.61463074 10.49844655 10.60920715 12.71685791 C10.60859686 13.77252964 10.60859686 13.77252964 10.60797423 14.84952807 C10.60526068 17.22556746 10.595236 19.60152008 10.58520508 21.97753906 C10.58161163 23.67398504 10.57840612 25.37043188 10.57556152 27.06687927 C10.56616237 31.68893575 10.54982274 36.3109414 10.53119111 40.93296909 C10.5195692 43.81870112 10.50889721 46.70443531 10.49844933 49.59017181 C10.46518492 58.61319019 10.42710218 67.63617233 10.38308412 76.65914464 C10.33237333 87.08512226 10.29812321 97.51098508 10.27790338 107.93706536 C10.26123082 115.988135 10.22936378 124.03905658 10.18605727 132.09002662 C10.16054243 136.9018957 10.14162309 141.71358 10.13868141 146.52552032 C10.13553142 151.05315836 10.11356908 155.58031656 10.07712555 160.10780525 C10.06700475 161.76983722 10.06368407 163.43192657 10.06765556 165.0939846 C10.072039 167.36327838 10.05193877 169.6310908 10.02571106 171.90020752 C10.02072507 173.17006123 10.01573908 174.43991493 10.010602 175.74824905 C9.41680685 179.60249587 8.16605389 181.28095669 5.5 184.0625 C4.95686126 183.78622709 4.41372252 183.50995419 3.85412502 183.22530937 C2.17915396 182.39796502 0.47324619 181.63203198 -1.24962521 180.90971565 C-4.56323669 179.25975213 -6.92347696 177.7362758 -9.5 175.0625 C-11.14595644 169.65322798 -10.95585167 164.33237191 -10.84399414 158.74169922 C-10.85071922 157.07389863 -10.86220108 155.40611148 -10.87806702 153.7383728 C-10.90679997 149.22096458 -10.8669182 144.7065361 -10.81292272 140.18945456 C-10.76638543 135.45926491 -10.77762647 130.72917793 -10.78111267 125.99880981 C-10.77825203 118.05778576 -10.73250441 110.11791759 -10.65942383 102.17724609 C-10.57529893 92.99794449 -10.55075863 83.82001697 -10.559928 74.64036548 C-10.56806453 65.80513789 -10.54199376 56.970369 -10.4975872 48.13525772 C-10.47882675 44.37695518 -10.47061514 40.61884809 -10.47059822 36.86050034 C-10.46846247 32.43588058 -10.43592064 28.01248517 -10.37987328 23.58823013 C-10.36395448 21.96493526 -10.35817307 20.34150456 -10.36327362 18.71813965 C-10.36846587 16.50095602 -10.3367404 14.2872641 -10.29554749 12.07052612 C-10.28679124 10.83058836 -10.27803499 9.5906506 -10.2690134 8.31313896 C-9.00144016 2.95507504 -5.67246632 0.10129404 0 0 Z " fill="#050707" transform="translate(371.5,262.9375)"/>
<path d="M0 0 C5.57894737 3.15789474 5.57894737 3.15789474 7 6 C7.12069712 8.03948917 7.17744836 10.08286509 7.20532227 12.12573242 C7.23522499 14.07099571 7.23522499 14.07099571 7.26573181 16.05555725 C7.28276178 17.48885945 7.29964915 18.92216334 7.31640625 20.35546875 C7.33712236 21.8382976 7.35821182 23.32112129 7.37965393 24.80393982 C7.43561412 28.77616277 7.48504914 32.74844055 7.53263092 36.72077179 C7.56246897 39.18493763 7.59382418 41.64907958 7.62567139 44.11322021 C8.02365541 75.00125295 8.33887149 105.86541704 7.5625 136.75 C7.5429425 137.55947083 7.52338501 138.36894165 7.50323486 139.20294189 C7.44658257 141.46361881 7.3829643 143.72397043 7.31640625 145.984375 C7.27974854 147.27053711 7.24309082 148.55669922 7.20532227 149.88183594 C7 153 7 153 6 156 C0.06 156.33 -5.88 156.66 -12 157 C-12.22315656 137.39859316 -12.42494917 117.79710757 -12.59840012 98.1951952 C-12.67947406 89.09376639 -12.76810665 79.99252824 -12.87451172 70.89135742 C-12.96723094 62.95914367 -13.04579043 55.02693797 -13.10732102 47.0944187 C-13.14039922 42.89382701 -13.18058416 38.69357366 -13.2377243 34.49323463 C-13.29128538 30.53954902 -13.32590831 26.58614923 -13.34602928 22.63215637 C-13.35674719 21.18127277 -13.3743763 19.73042117 -13.39944649 18.27971458 C-13.43265722 16.29797352 -13.43853055 14.31583069 -13.4430542 12.33381653 C-13.45411572 11.22489957 -13.46517723 10.11598261 -13.47657394 8.9734621 C-12.88399445 5.27621284 -11.62132806 3.62961431 -9 1 C-5.64870516 -0.11709828 -3.51689744 -0.34479387 0 0 Z " fill="#060808" transform="translate(577,237)"/>
<path d="M0 0 C6.27 0.33 12.54 0.66 19 1 C19.8905124 4.56204961 20.13438008 7.20348191 20.15390015 10.83151245 C20.16250061 12.02315002 20.17110107 13.2147876 20.17996216 14.4425354 C20.18422211 15.7465329 20.18848206 17.0505304 20.19287109 18.39404297 C20.20077637 19.78389692 20.20904558 21.17374884 20.21765137 22.56359863 C20.24381461 27.12310847 20.25916977 31.68262724 20.2734375 36.2421875 C20.27879886 37.81336599 20.28417637 39.38454443 20.28956985 40.95572281 C20.31118707 47.49085889 20.32992433 54.02599256 20.34119225 60.56115532 C20.35743821 69.9208595 20.39064452 79.28014906 20.44759309 88.63969696 C20.48629411 95.22495494 20.50582489 101.81010201 20.51111281 108.39547074 C20.51476507 112.32718906 20.52677299 116.25846458 20.55921555 120.19005966 C20.58930087 123.88875206 20.59560696 127.58673379 20.58383179 131.28552246 C20.58350607 133.28588515 20.6079667 135.28620403 20.63320923 137.28640747 C20.56511033 147.08786781 20.56511033 147.08786781 17.46353149 150.853302 C16.6505661 151.56171234 15.83760071 152.27012268 15 153 C8.58504675 152.11034987 4.06135187 148.99039453 0 144 C-1.40504639 139.27767641 -1.26886271 134.77009022 -1.13525391 129.87304688 C-1.13242925 128.45316773 -1.13402417 127.03327401 -1.13967896 125.61340332 C-1.14253647 121.77799235 -1.08395376 117.94573904 -1.01393938 114.11105919 C-0.95122007 110.09670615 -0.94553623 106.08227228 -0.9336853 102.06750488 C-0.90266302 94.47389317 -0.8206864 86.88172942 -0.72019041 79.28875399 C-0.60822811 70.64081248 -0.55338749 61.99280003 -0.50323606 53.34431362 C-0.39884471 35.56203346 -0.22104682 17.78118647 0 0 Z " fill="#070A09" transform="translate(395,321)"/>
<path d="M0 0 C0.80993408 0.00165665 1.61986816 0.00331329 2.4543457 0.00502014 C3.07140381 0.00715012 3.68846191 0.00928009 4.32421875 0.01147461 C4.44101458 18.17878869 4.52918842 36.34600534 4.58327961 54.5136137 C4.60906256 62.94914486 4.6442146 71.38444277 4.70141602 79.81982422 C4.75124847 87.17202386 4.78350911 94.52405458 4.79466122 101.87641841 C4.80118036 105.76962336 4.81650325 109.66234505 4.85286903 113.55539513 C4.88682656 117.22035465 4.89727256 120.88463222 4.88975716 124.54973412 C4.89178697 126.53484166 4.91868356 128.51987505 4.94631958 130.50479126 C4.89003178 140.20794256 4.89003178 140.20794256 1.93132019 143.30867004 C-1.51938861 145.56246907 -3.50710719 145.72547056 -7.51953125 145.51147461 C-10.96949903 144.71148208 -12.58506121 142.75554466 -14.67578125 140.01147461 C-15.86405713 137.63492285 -15.80154406 136.19817289 -15.80276489 133.5464325 C-15.80558472 132.60640381 -15.80840454 131.66637512 -15.81130981 130.69786072 C-15.80928558 129.66270828 -15.80726135 128.62755585 -15.80517578 127.56103516 C-15.8069281 126.47281464 -15.80868042 125.38459412 -15.81048584 124.26339722 C-15.81490891 120.64164665 -15.8119609 117.01994449 -15.80859375 113.39819336 C-15.80926758 110.87303152 -15.81023827 108.34786975 -15.81149292 105.82270813 C-15.81297125 100.50875171 -15.81091007 95.1948126 -15.80615234 89.88085938 C-15.8007626 83.79186483 -15.80243277 77.70290404 -15.80797875 71.61391038 C-15.8131287 65.71825327 -15.81249892 59.82260864 -15.80959702 53.92695045 C-15.80893691 51.44070239 -15.80972353 48.95445345 -15.81207657 46.46820641 C-15.82083179 34.59549848 -15.76436738 22.74039171 -15.22998047 10.87792969 C-15.17189807 9.54423481 -15.17189807 9.54423481 -15.11264229 8.18359661 C-14.80193335 2.13762671 -14.80193335 2.13762671 -13.67578125 1.01147461 C-12.3508113 0.77191531 -11.01425145 0.59536979 -9.67578125 0.44897461 C-8.95390625 0.36518555 -8.23203125 0.28139648 -7.48828125 0.19506836 C-4.97737974 0.03116229 -2.51490643 -0.00667348 0 0 Z " fill="#080B0A" transform="translate(512.67578125,415.988525390625)"/>
<path d="M0 0 C3.62857672 1.46538675 6.53864339 2.93375481 9 6 C9.41548729 8.17402935 9.41548729 8.17402935 9.4727478 10.748703 C9.50118271 11.72572174 9.52961761 12.70274048 9.55891418 13.70936584 C9.57476059 14.78004807 9.59060699 15.85073029 9.60693359 16.95385742 C9.63479446 18.08261292 9.66265533 19.21136841 9.69136047 20.37432861 C9.77784916 24.11791251 9.84047333 27.86133985 9.8984375 31.60546875 C9.93145399 33.5225788 9.93145399 33.5225788 9.96513748 35.47841835 C10.06829821 41.54596893 10.15959736 47.61340959 10.23254049 53.68138236 C10.31697349 60.67495137 10.44765835 67.6656439 10.6182245 74.65763015 C10.76284441 80.7222988 10.8463066 86.78645642 10.90828323 92.85250282 C10.94325242 95.42796948 10.9968613 98.00325363 11.06953049 100.57793236 C11.64253588 121.83108113 11.64253588 121.83108113 7.63189697 126.29312134 C4.80411487 128.37877925 2.24617281 129.69351348 -1 131 C-2.42350517 131.96019984 -3.82451722 132.95566833 -5.1875 134 C-6.5796875 134.99 -6.5796875 134.99 -8 136 C-10.43050971 133.93648445 -11.8529461 132.71517686 -12.50615788 129.53836918 C-12.5089648 128.61200877 -12.51177172 127.68564837 -12.5146637 126.73121643 C-12.52738815 125.66434601 -12.54011261 124.59747559 -12.55322266 123.49827576 C-12.54669678 122.33296829 -12.5401709 121.16766083 -12.53344727 119.96704102 C-12.54206284 118.73578491 -12.55067841 117.50452881 -12.55955505 116.23596191 C-12.57837059 112.86166889 -12.57910894 109.48835747 -12.57023358 106.11408734 C-12.56512222 103.29596333 -12.57241748 100.47792734 -12.57970566 97.65981239 C-12.59670614 91.01067879 -12.59313781 84.36177467 -12.57641602 77.71264648 C-12.55949568 70.85621771 -12.57532694 64.00042562 -12.6076389 57.14406639 C-12.63434255 51.25431186 -12.64160875 45.36475543 -12.63312382 39.47494644 C-12.62819655 35.95857771 -12.6303985 32.44259203 -12.65091133 28.92627144 C-12.67269301 25.00471227 -12.65386086 21.08391935 -12.63110352 17.16235352 C-12.64279572 15.99907028 -12.65448792 14.83578705 -12.66653442 13.63725281 C-12.57378769 5.79699786 -12.57378769 5.79699786 -9.67539978 1.77110291 C-6.13710403 -0.57123334 -4.17624022 -0.58613898 0 0 Z " fill="#0A0C0B" transform="translate(680,289)"/>
<path d="M0 0 C2.77015284 1.61324602 4.19692197 2.46567943 6 5 C6.88566447 8.80928089 6.7787538 12.5482569 6.71289062 16.44384766 C6.71902374 18.17872688 6.71902374 18.17872688 6.72528076 19.94865417 C6.7312965 23.77110059 6.6943491 27.59182126 6.65625 31.4140625 C6.65013493 34.06776613 6.64618251 36.72138996 6.64489746 39.37509155 C6.63751976 44.93518322 6.60762181 50.49477995 6.5625 56.0546875 C6.50469686 63.19173695 6.48404682 70.32838863 6.4751358 77.46564674 C6.46803208 82.9439405 6.44759629 88.42216002 6.42338562 93.90040207 C6.41196971 96.53270092 6.40245578 99.1650087 6.39485168 101.79732132 C6.38114588 105.47002178 6.35389224 109.14235708 6.32226562 112.81494141 C6.31891205 114.45608665 6.31891205 114.45608665 6.31549072 116.13038635 C6.30407043 117.12856888 6.29265015 118.1267514 6.28088379 119.15518188 C6.2719598 120.45761306 6.2719598 120.45761306 6.26285553 121.78635597 C6 124 6 124 4 127 C-2.40373247 126.13925102 -8.28055857 124.78706982 -12.85864258 119.89105225 C-17.51025903 112.18404517 -15.43741176 99.91744056 -15.25 91.3125 C-15.23247839 88.6833789 -15.22017067 86.05421824 -15.21289062 83.42504883 C-15.19833049 79.36740694 -15.17500981 75.31034774 -15.11962891 71.2530365 C-14.9935382 62.00316266 -15.06970496 52.77317586 -15.265625 43.5234375 C-15.32713217 39.90388401 -15.38454364 36.28429601 -15.43981934 32.66464233 C-15.47978102 30.35572008 -15.52926604 28.04694205 -15.58850098 25.73843384 C-15.665475 22.5268707 -15.69764504 19.31781702 -15.71875 16.10546875 C-15.75164124 15.16436249 -15.78453247 14.22325623 -15.81842041 13.25363159 C-15.79979315 6.99956675 -15.79979315 6.99956675 -13.46313477 4.07925415 C-8.87321653 0.0614392 -6.12459597 -1.64892968 0 0 Z " fill="#050808" transform="translate(342,295)"/>
<path d="M0 0 C3.42757153 0.91104596 7.55145551 2.00848676 10.1015625 4.55859375 C10.22665517 6.96597308 10.2876055 9.34607852 10.30688477 11.75512695 C10.31678436 12.51008957 10.32668396 13.26505219 10.33688354 14.04289246 C10.36870161 16.56502075 10.39339087 19.08716652 10.41796875 21.609375 C10.43857636 23.37933292 10.45957373 25.14928633 10.48094177 26.91923523 C10.52504766 30.65617247 10.56590591 34.39312619 10.60424805 38.13012695 C10.67139447 44.66982755 10.74929054 51.20939082 10.82805443 57.74896049 C10.88116113 62.27379436 10.92612792 66.79845246 10.95401001 71.32351685 C10.96537759 73.08368063 10.97696098 74.84384303 10.98876953 76.60400391 C10.99446772 77.45486132 11.0001659 78.30571873 11.00603676 79.1823597 C11.0468972 83.85021458 11.15479124 88.50718272 11.35717487 93.17083073 C11.44201928 95.16219323 11.5066275 97.15438602 11.57054138 99.14653015 C11.64817269 101.48612262 11.7600822 103.82496806 11.91493225 106.16072083 C12.10418424 113.38773422 12.10418424 113.38773422 9.17263794 116.81118774 C5.75675559 119.57136032 3.11695647 121.34785161 -1.2109375 122.24609375 C-5.18825373 121.22864076 -6.89611004 119.20643088 -8.98681641 115.76928711 C-10.87223499 111.1971218 -10.27887834 105.99676977 -10.2734375 101.12109375 C-10.27472656 99.94272949 -10.27601563 98.76436523 -10.27734375 97.55029297 C-10.18672804 90.11259635 -9.43213763 84.2424216 -6.8046875 77.2890625 C-4.5718963 70.5618166 -5.10127263 64.10661875 -7.8984375 57.6875 C-11.01485316 48.66229891 -10.49487503 39.23801927 -10.41992188 29.79248047 C-10.39830065 26.53799501 -10.41989115 23.28567215 -10.4453125 20.03125 C-10.44267232 17.95702639 -10.43755377 15.88280412 -10.4296875 13.80859375 C-10.43778442 12.83881592 -10.44588135 11.86903809 -10.45422363 10.86987305 C-10.36155452 4.24092285 -10.36155452 4.24092285 -8.10351562 0.9140625 C-5.27547108 -0.82434575 -3.20982022 -0.58305723 0 0 Z " fill="#0B0C0C" transform="translate(607.8984375,351.44140625)"/>
<path d="M0 0 C0.88211655 -0.0071553 1.76423309 -0.01431061 2.67308044 -0.02168274 C4.52610269 -0.02942139 6.37921696 -0.02452947 8.23217773 -0.00756836 C11.05562979 0.01169852 13.87418003 -0.02782112 16.69726562 -0.07226562 C18.50651332 -0.07255596 20.3157655 -0.06941672 22.125 -0.0625 C23.37839928 -0.08542366 23.37839928 -0.08542366 24.65711975 -0.10881042 C30.1739063 0.00010365 33.13645955 1.32391276 37.23326111 5.01676941 C38.74822236 7.03512519 39.01383466 8.2544937 39.12109375 10.76171875 C38.50690694 14.63109564 37.96612648 16.6998933 35.49609375 19.69921875 C31.89153331 22.13086666 28.58489185 21.9294548 24.32421875 21.89453125 C23.64180115 21.89170135 22.95938354 21.88887146 22.25628662 21.88595581 C20.08604068 21.87479973 17.91621404 21.84970432 15.74609375 21.82421875 C14.27083931 21.81418301 12.79557838 21.80505819 11.3203125 21.796875 C7.71210433 21.77487562 4.10414 21.74037758 0.49609375 21.69921875 C0.5118042 22.91504639 0.52751465 24.13087402 0.54370117 25.38354492 C0.59808176 29.90284578 0.63247347 34.42211781 0.66088867 38.94165039 C0.67595676 40.89612698 0.69641499 42.85056987 0.72241211 44.80493164 C0.7588824 47.61743498 0.77583997 50.42949049 0.7890625 53.2421875 C0.80454636 54.11320602 0.82003021 54.98422455 0.83598328 55.88163757 C0.83730362 60.66248275 0.59770015 63.80849421 -2.50390625 67.69921875 C-5.43663321 69.9802286 -8.74089518 70.25562968 -12.41654968 70.12402344 C-16.47061319 69.29896786 -19.12122747 67.01818186 -21.50390625 63.69921875 C-22.49872768 59.77542602 -22.41549525 55.97910857 -22.328125 51.94921875 C-22.32770706 50.81774414 -22.32728912 49.68626953 -22.32685852 48.52050781 C-22.31849317 46.13334677 -22.29306633 43.74619242 -22.25170898 41.359375 C-22.19160404 37.71122361 -22.19013181 34.06654413 -22.19726562 30.41796875 C-22.18185611 28.09502647 -22.16308846 25.77210353 -22.140625 23.44921875 C-22.13931076 22.36157227 -22.13799652 21.27392578 -22.13664246 20.15332031 C-22.00727032 14.2263406 -21.77897872 10.17919942 -17.50390625 5.69921875 C-11.95638411 1.02433109 -7.12799386 -0.05972181 0 0 Z " fill="#070A0A" transform="translate(347.50390625,185.30078125)"/>
<path d="M0 0 C3.39464783 1.91909491 6.44520557 4.17351606 7.6100769 8.00848389 C7.80891023 10.33604014 7.78895001 12.56485874 7.68359375 14.8984375 C7.67368912 15.73339752 7.66378448 16.56835754 7.65357971 17.42861938 C7.61458574 20.07924765 7.52680706 22.72563757 7.4375 25.375 C7.40236608 27.17832533 7.3704307 28.981716 7.34179688 30.78515625 C7.26487474 35.19172169 7.14420848 39.59514397 7 44 C8.36934692 43.97643433 8.36934692 43.97643433 9.76635742 43.95239258 C13.1676201 43.9011303 16.56846963 43.86358561 19.9699707 43.83520508 C21.43943782 43.82015934 22.90886034 43.79971762 24.37817383 43.77368164 C26.4957177 43.73711045 28.61266565 43.72023199 30.73046875 43.70703125 C32.63928833 43.68346558 32.63928833 43.68346558 34.58666992 43.65942383 C39.24255352 44.12397984 41.71500502 45.99284177 45.3125 48.8125 C47 51 47 51 47.5 53.875 C46.74178895 58.61381905 44.68181791 61.65765904 40.94262695 64.64208984 C36.8132556 66.5476373 33.10612309 66.50547845 28.60546875 66.5390625 C27.69928299 66.55141937 26.79309723 66.56377625 25.85945129 66.57650757 C23.94567294 66.59603749 22.03179465 66.60729951 20.11791992 66.61083984 C17.20644414 66.62490846 14.29928327 66.69224838 11.38867188 66.76171875 C-4.18551196 66.94680778 -4.18551196 66.94680778 -9.13671875 62.7734375 C-10.7019043 60.99755859 -10.7019043 60.99755859 -12 59 C-12.54293701 58.31945557 -13.08587402 57.63891113 -13.64526367 56.93774414 C-15.71331479 52.45317772 -15.50759897 48.1073075 -15.5390625 43.22265625 C-15.55141937 42.17855087 -15.56377625 41.1344455 -15.57650757 40.05870056 C-15.59604717 37.85405062 -15.6073012 35.64931377 -15.61083984 33.44458008 C-15.6249401 30.07680735 -15.69231579 26.71273129 -15.76171875 23.34570312 C-15.77411606 21.20053729 -15.78333628 19.05535026 -15.7890625 16.91015625 C-15.81578033 15.90686783 -15.84249817 14.90357941 -15.87002563 13.86988831 C-15.8042483 7.08400498 -15.8042483 7.08400498 -13.5289917 4.01730347 C-9.35590749 0.24592476 -5.61802495 -1.6373091 0 0 Z " fill="#060908" transform="translate(341,463)"/>
<path d="M0 0 C1.43085937 0.00062691 1.43085937 0.00062691 2.890625 0.00126648 C4.90118035 0.00962392 6.91172845 0.03502117 8.921875 0.07641602 C11.99079109 0.13653834 15.0555794 0.13799184 18.125 0.13085938 C20.08336372 0.14626923 22.04170449 0.16503708 24 0.1875 C25.36898437 0.18947136 25.36898437 0.18947136 26.765625 0.19148254 C32.32366402 0.33536727 35.59874755 1.1134341 40 4.82421875 C43.60919004 8.92113718 45.1168371 11.23561946 45.17700195 16.65356445 C45.19625481 18.1607177 45.19625481 18.1607177 45.21589661 19.69831848 C45.22328354 20.78787338 45.23067047 21.87742828 45.23828125 23 C45.246353 24.11731003 45.25442474 25.23462006 45.26274109 26.38578796 C45.27658946 28.75383956 45.28730823 31.12191118 45.29516602 33.48999023 C45.31238037 37.11155013 45.35626128 40.73219775 45.40039062 44.35351562 C45.41051715 46.65233703 45.41903338 48.9511662 45.42578125 51.25 C45.44328934 52.33348221 45.46079742 53.41696442 45.47883606 54.53327942 C45.45711229 62.06439942 45.45711229 62.06439942 43.09838867 65.98510742 C39.81785351 68.86029897 37.47543295 69.1609962 33.1015625 69.11328125 C29.70024318 68.64544179 27.58880645 66.98155746 25 64.82421875 C22.95485873 61.75650684 22.75172726 61.16853827 22.77294922 57.7199707 C22.77310028 56.89934647 22.77325134 56.07872223 22.77340698 55.23323059 C22.78372955 54.3518895 22.79405212 53.4705484 22.8046875 52.5625 C22.8075174 51.656707 22.81034729 50.750914 22.81326294 49.81767273 C22.82446036 46.92388717 22.84956411 44.03041081 22.875 41.13671875 C22.88503037 39.17513468 22.89415612 37.21354575 22.90234375 35.25195312 C22.92439827 30.44258915 22.95892511 25.63345638 23 20.82421875 C21.59306885 20.90893433 21.59306885 20.90893433 20.15771484 20.99536133 C16.65820641 21.19343446 13.15915453 21.36765435 9.65771484 21.52612305 C8.14615975 21.59935668 6.63502512 21.68191357 5.12451172 21.77416992 C2.94544069 21.90560367 0.76702792 22.00277864 -1.4140625 22.09375 C-3.37786865 22.19586792 -3.37786865 22.19586792 -5.38134766 22.30004883 C-10.1650043 21.67102799 -11.64717783 20.2184533 -15 16.82421875 C-16.015625 14.61328125 -16.015625 14.61328125 -16.25 12.44921875 C-16.35828125 11.74023438 -16.4665625 11.03125 -16.578125 10.30078125 C-14.51660904 1.46969262 -8.09609874 -0.20918317 0 0 Z " fill="#040707" transform="translate(647,185.17578125)"/>
<path d="M0 0 C3.84276152 1.03458964 6.8149274 3.26414791 9.03125 6.546875 C10.61134849 14.80872333 10.14746079 23.20957917 10.0090332 31.57983398 C9.98220441 33.51427128 9.96785652 35.44892242 9.96606445 37.38354492 C9.96295432 40.19821151 9.92112785 43.01003981 9.87109375 45.82421875 C9.87705063 46.67966782 9.88300751 47.53511688 9.8891449 48.41648865 C9.70720494 54.94273544 7.69353152 58.96800019 3.03125 63.546875 C-1.96176924 67.10726823 -6.83037482 67.01428651 -12.75 67.015625 C-13.68171021 67.02323853 -14.61342041 67.03085205 -15.57336426 67.03869629 C-17.5366753 67.049467 -19.5000435 67.05236275 -21.46337891 67.04785156 C-24.45963225 67.04687796 -27.45333383 67.08856014 -30.44921875 67.1328125 C-32.36197385 67.13801913 -34.27473781 67.1407077 -36.1875 67.140625 C-37.07828247 67.15702026 -37.96906494 67.17341553 -38.88684082 67.19030762 C-43.21431392 67.14242954 -46.08299762 66.91149775 -49.51757812 64.13476562 C-52.37499534 61.11797056 -52.88669811 60.40021469 -53.28125 56.296875 C-52.9137114 51.88641179 -51.73594254 49.94656869 -48.96875 46.546875 C-45.24127422 44.06189115 -42.5273481 44.38068379 -38.23828125 44.5703125 C-37.11265022 44.60785141 -37.11265022 44.60785141 -35.96427917 44.64614868 C-33.56947086 44.72826566 -31.17549761 44.82488552 -28.78125 44.921875 C-27.15693506 44.98012317 -25.53258593 45.03742627 -23.90820312 45.09375 C-19.92790586 45.23383174 -15.94829625 45.38692183 -11.96875 45.546875 C-12.0001709 44.36134033 -12.0315918 43.17580566 -12.06396484 41.9543457 C-12.17273616 37.54707113 -12.24150841 33.13991459 -12.29833984 28.73168945 C-12.32847497 26.82556189 -12.36939197 24.91957258 -12.42138672 23.01391602 C-12.49434975 20.27064913 -12.52823758 17.52921782 -12.5546875 14.78515625 C-12.58565521 13.93601151 -12.61662292 13.08686676 -12.64852905 12.21199036 C-12.65178396 6.46292762 -12.65178396 6.46292762 -10.73150635 3.88754272 C-7.42368017 0.95918916 -4.46983793 -0.30945032 0 0 Z " fill="#040808" transform="translate(682.96875,462.453125)"/>
<path d="M0 0 C3.6891038 1.67686536 6.33723849 3.95684399 9 7 C10.85436551 12.56309654 9.99603788 17.50565008 8.5390625 23.05859375 C5.80737871 35.12371117 6.46563011 47.73055801 6.38873291 60.03039551 C6.35681207 64.75382839 6.30535115 69.47706568 6.25234985 74.20030212 C6.22532005 76.70330771 6.20388488 79.20638176 6.18881226 81.70948792 C6.17341904 83.40802162 6.17341904 83.40802162 6.15771484 85.14086914 C6.15121918 86.13043106 6.14472351 87.11999298 6.13803101 88.13954163 C5.99241414 91.15720406 5.55233106 94.03202444 5 97 C4.21496094 97.06058594 3.42992187 97.12117188 2.62109375 97.18359375 C1.57050781 97.26738281 0.51992188 97.35117187 -0.5625 97.4375 C-1.59503906 97.51871094 -2.62757813 97.59992188 -3.69140625 97.68359375 C-7.14798684 98.01415222 -10.56445776 98.49902057 -14 99 C-14.00808685 98.15190262 -14.01617371 97.30380524 -14.02450562 96.43000793 C-14.10288705 88.38420395 -14.19030377 80.33855747 -14.28752708 72.29295826 C-14.33718476 68.15798519 -14.38351376 64.02303397 -14.421875 59.88793945 C-14.45911816 55.8872179 -14.50557574 51.88669417 -14.55806351 47.88614464 C-14.57640263 46.37020066 -14.59158353 44.85421462 -14.60334396 43.33820534 C-14.67022434 35.00440769 -15.08544762 26.93434836 -16.54043579 18.70024109 C-17.38887217 13.71512102 -18.0190714 9.69845233 -15.3125 5.1875 C-10.46310894 0.60023819 -6.6166366 -0.99518518 0 0 Z " fill="#090B0A" transform="translate(612,205)"/>
<path d="M0 0 C3.58552881 1.63687185 4.79315055 2.68972583 7 6 C7.5761182 11.04707557 7.66928255 16.09099556 7.75512695 21.16772461 C7.79318774 22.83932208 7.8544954 24.51056144 7.93969727 26.18041992 C8.63835768 39.99092656 8.63835768 39.99092656 4.66943359 44.85791016 C0.38893041 48.04007432 -4.03257679 50.11107569 -9 52 C-13.5600494 47.51747144 -13.65249683 43.77221409 -13.75 37.71875 C-13.77602295 36.82764526 -13.8020459 35.93654053 -13.82885742 35.01843262 C-13.87838822 33.13930671 -13.91814021 31.25990075 -13.94873047 29.38037109 C-13.99984894 26.50848688 -14.09353835 23.64015919 -14.19140625 20.76953125 C-14.23433902 18.94016263 -14.27478721 17.11073367 -14.3125 15.28125 C-14.3424707 14.42591675 -14.37244141 13.5705835 -14.40332031 12.68933105 C-14.44117628 8.58134165 -14.34100985 6.54315487 -12.10546875 2.98242188 C-8.41309328 -0.49416542 -4.89843948 -0.53591372 0 0 Z " fill="#080B0A" transform="translate(578,449)"/>
<path d="M0 0 C5.60925993 3.60645687 5.60925993 3.60645687 6.52746582 6.88116455 C6.69393741 9.13739009 6.67528529 11.32141587 6.5859375 13.58203125 C6.57744781 14.39621017 6.56895813 15.2103891 6.56021118 16.04924011 C6.52674176 18.63836525 6.4514836 21.22432381 6.375 23.8125 C6.34489164 25.5722205 6.31751734 27.33199004 6.29296875 29.09179688 C6.23207876 33.39671884 6.1146911 37.69483583 6 42 C-0.6 42.33 -7.2 42.66 -14 43 C-14.0919751 37.82129077 -14.17156441 32.64542887 -14.21972656 27.46655273 C-14.23980786 25.70603825 -14.26707879 23.94559018 -14.30175781 22.18530273 C-14.35043112 19.65071198 -14.37300305 17.11700505 -14.390625 14.58203125 C-14.41127014 13.79850784 -14.43191528 13.01498444 -14.45318604 12.2077179 C-14.45473193 8.41932138 -14.16030862 6.2509922 -12.10058594 3.02612305 C-8.59971049 -0.35065117 -4.72449721 -1.09152177 0 0 Z " fill="#070A09" transform="translate(409,222)"/>
<path d="M0 0 C3.18936292 1.7311782 4.96455676 3.09331952 6.99609375 6.140625 C7.70858558 11.41803541 7.64165378 15.84950494 5.24609375 20.640625 C1.39525295 24.919337 -1.47833204 26.90236328 -7.31640625 27.453125 C-11.82940461 27.07066751 -13.62539688 26.14374444 -17.00390625 23.140625 C-19.75085985 19.40079661 -21.37497953 15.77174504 -21.12890625 11.078125 C-20.24226302 6.44381452 -17.51206896 3.18048496 -14.00390625 0.140625 C-9.39921275 -2.68456543 -4.82239792 -2.06808488 0 0 Z " fill="#040707" transform="translate(584.00390625,408.859375)"/>
<path d="M0 0 C3.89252146 2.17082928 6.63098207 4.22863238 9 8 C9.8349155 12.15370459 9.80449259 16.25374028 8.015625 20.13671875 C5.75325638 23.46742811 3.79401083 25.49085815 0 27 C-4.59524753 27.71852961 -8.1445696 27.39603259 -12.375 25.4375 C-15.96710681 22.10197225 -17.75387961 18.9768847 -18.1640625 14.015625 C-17.91178891 9.00896445 -15.97719476 6.10332582 -12.66796875 2.4453125 C-8.41253735 -1.24206365 -5.45974292 -1.31786898 0 0 Z " fill="#060908" transform="translate(410,281)"/>
<path d="M0 0 C3.02508145 1.73602105 5.41790069 3.83580137 7 7 C7.55846492 11.57758127 7.69273432 15.57370819 5.0625 19.5 C2.20657306 22.96172962 2.20657306 22.96172962 0.14453125 23.34375 C-6.03765952 23.75796714 -6.03765952 23.75796714 -8.89453125 21.5078125 C-11.8483711 18.04369862 -13.86957179 15.35645335 -14.3125 10.75 C-13.94713599 6.36563187 -12.73973233 4.38437523 -10 1 C-6.77140153 -0.61429923 -3.49006347 -0.59570657 0 0 Z " fill="#070A09" transform="translate(618,316)"/>
<path d="M0 0 C3.32461922 0.79324248 5.02799382 1.9204497 7.2265625 4.53125 C8.59382906 8.874332 8.65074657 10.7143029 6.5390625 14.78125 C1.88456911 20.31632322 1.88456911 20.31632322 -3.1484375 20.96875 C-8.24048227 20.35419287 -11.20589473 18.09879277 -14.7734375 14.53125 C-15.21291515 11.26655886 -15.47941941 8.72870393 -13.7578125 5.80859375 C-9.38304288 0.44554786 -6.60987328 -0.9473434 0 0 Z " fill="#0A0C0B" transform="translate(510.7734375,384.46875)"/>
<path d="M0 0 C2.8125 1.875 2.8125 1.875 5 5 C5.92687576 9.87408803 5.66902263 13.71341802 3.375 18.125 C1 20 1 20 -1.875 20.625 C-6.17786288 19.76442742 -7.8713545 18.05588631 -11 15 C-12.41000664 12.17998673 -12.24548451 10.12992745 -12 7 C-10.70685228 4.15507503 -9.68842011 2.48189408 -7.125 0.6875 C-4.44304677 -0.18019075 -2.80382 -0.47870098 0 0 Z " fill="#3B3D3D" transform="translate(443,218)"/>
<path d="M0 0 C2.8125 2.0625 2.8125 2.0625 5 5 C5.3125 8.8125 5.3125 8.8125 5 12 C4.67 11.360625 4.34 10.72125 4 10.0625 C0.97670168 6.9447236 -1.73656724 7.27956936 -6 7 C-6 6.34 -6 5.68 -6 5 C-7.65 5.66 -9.3 6.32 -11 7 C-9.54588235 2.39529412 -9.54588235 2.39529412 -7.1875 0.6875 C-4.47991868 -0.16345413 -2.82245987 -0.48188339 0 0 Z " fill="#4D4E4C" transform="translate(443,218)"/>
<path d="M0 0 C1.875 1.5625 1.875 1.5625 3 3 C0.48352457 3.77430013 -1.213561 3.98142948 -3.875 3.75 C-8.29287512 4.10343001 -9.75922512 6.05384102 -13 9 C-13.66 9 -14.32 9 -15 9 C-14.7416116 5.51175659 -13.73533264 4.75785753 -11.0625 2.3125 C-6.71254596 -0.97215917 -5.30693035 -1.29965641 0 0 Z " fill="#111314" transform="translate(342,295)"/>
<path d="M0 0 C1.98 0 3.96 0 6 0 C6 0.33 6 0.66 6 1 C4.35 1 2.7 1 1 1 C1.11809221 6.09049582 1.24232913 11.18079005 1.37231445 16.27099609 C1.4156808 18.00337626 1.45735463 19.73579963 1.49731445 21.46826172 C1.55497594 23.95553627 1.61868198 26.44259293 1.68359375 28.9296875 C1.70030624 29.70682098 1.71701874 30.48395447 1.73423767 31.28463745 C1.76473429 35.27274216 1.76473429 35.27274216 3 39 C2.0625 41.125 2.0625 41.125 1 43 C0.67 43 0.34 43 0 43 C0 28.81 0 14.62 0 0 Z " fill="#F9FBFB" transform="translate(348,207)"/>
<path d="M0 0 C0.66 0 1.32 0 2 0 C1.84152588 0.4940332 1.68305176 0.98806641 1.51977539 1.49707031 C0.79279058 4.99779755 0.76349754 8.48527031 0.68359375 12.046875 C0.66281265 12.81807678 0.64203156 13.58927856 0.62062073 14.3838501 C0.55541428 16.83914572 0.49637516 19.29454521 0.4375 21.75 C0.39428726 23.41797935 0.3506721 25.08594832 0.30664062 26.75390625 C0.19976264 30.83583196 0.09841434 34.91786182 0 39 C-0.33 39 -0.66 39 -1 39 C-1.02464849 33.60653012 -1.04283531 28.21309275 -1.05493164 22.81958008 C-1.05997231 20.98331125 -1.06680477 19.14704646 -1.07543945 17.31079102 C-1.08751672 14.67723599 -1.09323081 12.04373384 -1.09765625 9.41015625 C-1.10281754 8.58411392 -1.10797882 7.75807159 -1.11329651 6.90699768 C-1.11349205 4.93763632 -1.06204152 2.96838386 -1 1 C-0.67 0.67 -0.34 0.34 0 0 Z " fill="#FAFCFB" transform="translate(361,266)"/>
<path d="M0 0 C0.66 0.99 1.32 1.98 2 3 C0.96875 3.103125 -0.0625 3.20625 -1.125 3.3125 C-4.95083945 3.99127797 -7.63370025 5.11158795 -11 7 C-9.54588235 2.39529412 -9.54588235 2.39529412 -7.1875 0.6875 C-4.601412 -0.12527051 -2.69283248 -0.35432006 0 0 Z " fill="#696967" transform="translate(443,218)"/>
<path d="M0 0 C5.53846154 0.61538462 5.53846154 0.61538462 7.875 2.5625 C8.431875 3.2740625 8.431875 3.2740625 9 4 C7.375 4.6875 7.375 4.6875 5 5 C1.75 3.5625 1.75 3.5625 -1 2 C-0.67 1.34 -0.34 0.68 0 0 Z " fill="#1B1C1E" transform="translate(336,294)"/>
<path d="M0 0 C-0.66 1.32 -1.32 2.64 -2 4 C-3.98 4 -5.96 4 -8 4 C-8.33 3.34 -8.66 2.68 -9 2 C-5.86501708 0.14223235 -3.62528568 -0.20140476 0 0 Z " fill="#252928" transform="translate(446,234)"/>
<path d="M0 0 C1.32 0.66 2.64 1.32 4 2 C2.60804085 4.7839183 0.84424221 4.97898997 -2 6 C-2.66 5.34 -3.32 4.68 -4 4 C-2.68 2.68 -1.36 1.36 0 0 Z " fill="#161918" transform="translate(366,264)"/>
<path d="M0 0 C3.37462715 0.54723683 5.08235 1.0549 8 3 C8 3.66 8 4.32 8 5 C5.03 4.01 2.06 3.02 -1 2 C-0.67 1.34 -0.34 0.68 0 0 Z " fill="#F5F6F8" transform="translate(338,292)"/>
<path d="M0 0 C0.66 0.33 1.32 0.66 2 1 C1.8125 2.8125 1.8125 2.8125 1 5 C-1.5625 6.75 -1.5625 6.75 -4 8 C-3.50168276 4.31245243 -2.89932357 2.39509338 0 0 Z " fill="#111212" transform="translate(399,223)"/>
<path d="M0 0 C0.66 0.33 1.32 0.66 2 1 C1.34 2.65 0.68 4.3 0 6 C-0.99 6 -1.98 6 -3 6 C-3 4.68 -3 3.36 -3 2 C-2.01 1.34 -1.02 0.68 0 0 Z " fill="#4C4E4D" transform="translate(434,223)"/>
<path d="M0 0 C-2.3125 2.0625 -2.3125 2.0625 -5 4 C-5.99 3.67 -6.98 3.34 -8 3 C-8 2.34 -8 1.68 -8 1 C-4.93251126 -0.86240388 -3.40254489 -1.2151946 0 0 Z " fill="#181818" transform="translate(342,187)"/>
<path d="M0 0 C1.485 0.99 1.485 0.99 3 2 C3 3.32 3 4.64 3 6 C2.34 6 1.68 6 1 6 C0.67 6.99 0.34 7.98 0 9 C0 6.03 0 3.06 0 0 Z " fill="#F6F8F9" transform="translate(653,430)"/>
<path d="M0 0 C0.66 0.33 1.32 0.66 2 1 C3.11421833 4.64653273 2.94296589 7.33291043 2 11 C1.67 11 1.34 11 1 11 C0.63890458 9.35567294 0.28629924 7.7094792 -0.0625 6.0625 C-0.25972656 5.14597656 -0.45695312 4.22945313 -0.66015625 3.28515625 C-0.77230469 2.53105469 -0.88445312 1.77695312 -1 1 C-0.67 0.67 -0.34 0.34 0 0 Z " fill="#F5F7F8" transform="translate(348,296)"/>
<path d="M0 0 C0.99 0.33 1.98 0.66 3 1 C3 2.32 3 3.64 3 5 C3.66 5.33 4.32 5.66 5 6 C2 6 2 6 -0.1875 4 C-0.785625 3.34 -1.38375 2.68 -2 2 C-1.34 2 -0.68 2 0 2 C0 1.34 0 0.68 0 0 Z " fill="#DFDFE1" transform="translate(381,184)"/>
</svg>
